<?xml version="1.0" standalone="no"?>
<!-- Generator: Adobe Fireworks 10, Export SVG Extension by Aaron Beall (http://fireworks.abeall.com) . Version: 0.6.1  -->
<!DOCTYPE svg PUBLIC "-//W3C//DTD SVG 1.1//EN" "http://www.w3.org/Graphics/SVG/1.1/DTD/svg11.dtd">
<svg id="2017-mobile-def-logo" viewBox="0 0 217 142" style="background-color:#ffffff00" version="1.1"
	xmlns="http://www.w3.org/2000/svg" xmlns:xlink="http://www.w3.org/1999/xlink" xml:space="preserve"
	x="0px" y="0px" width="217px" height="142px"
>
	<defs>
		<linearGradient id="gradient1" x1="-4.3518%" y1="89.8707%" x2="39.9554%" y2="57.3679%">
			<stop stop-color="#0697d4" stop-opacity="1" offset="1%"/>
			<stop stop-color="#1a5070" stop-opacity="1" offset="99%"/>
		</linearGradient>
	</defs>
	<g id="Layer%201">
		<g visibility="hidden">
			<path opacity="0.702" d="M -563 104 L -563 142 L 1387 142 L 1387 104 L -563 104 Z" fill="#cccccc"/>
			<g id="linha%20cores">
				<path d="M -68 142 L 38 142 L 38 146 L -68 146 L -68 142 Z" fill="#999933"/>
				<path d="M 38 142 L 144 142 L 144 146 L 38 146 L 38 142 Z" fill="#a5ce37"/>
				<path d="M 144 142 L 250 142 L 250 146 L 144 146 L 144 142 Z" fill="#b272b0"/>
				<path d="M 250 142 L 357 142 L 357 146 L 250 146 L 250 142 Z" fill="#e51e41"/>
				<path d="M 357 142 L 464 142 L 464 146 L 357 146 L 357 142 Z" fill="#ffce1a"/>
				<path d="M 464 142 L 571 142 L 571 146 L 464 146 L 464 142 Z" fill="#526364"/>
				<path d="M 571 142 L 678 142 L 678 146 L 571 146 L 571 142 Z" fill="#f5811e"/>
				<path d="M 678 142 L 785 142 L 785 146 L 678 146 L 678 142 Z" fill="#00a2e5"/>
				<path d="M 785 142 L 892 142 L 892 146 L 785 146 L 785 142 Z" fill="#ac4c33"/>
				<path d="M -603 142 L -496 142 L -496 146 L -603 146 L -603 142 Z" fill="#ffce1a"/>
				<path d="M -496 142 L -389 142 L -389 146 L -496 146 L -496 142 Z" fill="#526364"/>
				<path d="M -389 142 L -282 142 L -282 146 L -389 146 L -389 142 Z" fill="#f5811e"/>
				<path d="M -282 142 L -175 142 L -175 146 L -282 146 L -282 142 Z" fill="#00a2e5"/>
				<path d="M -175 142 L -68 142 L -68 146 L -175 146 L -175 142 Z" fill="#ac4c33"/>
				<path d="M 892 142 L 998 142 L 998 146 L 892 146 L 892 142 Z" fill="#999933"/>
				<path d="M 998 142 L 1104 142 L 1104 146 L 998 146 L 998 142 Z" fill="#a5ce37"/>
				<path d="M 1104 142 L 1210 142 L 1210 146 L 1104 146 L 1104 142 Z" fill="#b272b0"/>
				<path d="M 1210 142 L 1317 142 L 1317 146 L 1210 146 L 1210 142 Z" fill="#e51e41"/>
				<path d="M 1317 142 L 1424 142 L 1424 146 L 1317 146 L 1317 142 Z" fill="#ffce1a"/>
			</g>
		</g>
		<g>
			<g>
				<path d="M 130.5514 72.4084 L 130.5514 77.9304 C 130.5514 78.2921 130.489 78.5609 130.3641 78.7372 C 130.2401 78.9135 130.0475 79.0016 129.7864 79.0016 C 129.5279 79.0016 129.3362 78.9135 129.2104 78.7372 C 129.0837 78.5609 129.0213 78.2921 129.0213 77.9304 L 129.0213 72.4084 C 129.0213 72.0467 129.0837 71.7779 129.2104 71.6016 C 129.3362 71.4253 129.5279 71.3372 129.7864 71.3372 C 130.0475 71.3372 130.2401 71.4253 130.3641 71.6016 C 130.489 71.7779 130.5514 72.0467 130.5514 72.4084 ZM 114.5754 51.0285 C 114.4514 50.8522 114.2589 50.764 113.9977 50.764 C 113.7393 50.764 113.5476 50.8522 113.4218 51.0285 C 113.2952 51.2048 113.2327 51.4736 113.2327 51.8353 L 113.2327 57.3573 C 113.2327 57.719 113.2952 57.9878 113.4218 58.1641 C 113.5476 58.3404 113.7393 58.4285 113.9977 58.4285 C 114.2589 58.4285 114.4514 58.3404 114.5754 58.1641 C 114.7004 57.9878 114.7628 57.719 114.7628 57.3573 L 114.7628 51.8353 C 114.7628 51.4736 114.7004 51.2048 114.5754 51.0285 ZM 123.764 64.4664 C 123.94 64.3422 124.0285 64.1494 124.0285 63.888 C 124.0285 63.6292 123.94 63.4373 123.764 63.3114 C 123.5878 63.1846 123.3198 63.1221 122.9581 63.1221 L 117.4431 63.1221 C 117.0814 63.1221 116.8134 63.1846 116.6373 63.3114 C 116.4612 63.4373 116.3727 63.6292 116.3727 63.888 C 116.3727 64.1494 116.4612 64.3422 116.6373 64.4664 C 116.8134 64.5915 117.0814 64.654 117.4431 64.654 L 122.9581 64.654 C 123.3198 64.654 123.5878 64.5915 123.764 64.4664 ZM 116.8438 78.9374 C 117.0198 78.8132 117.1083 78.6204 117.1083 78.359 C 117.1083 78.1002 117.0198 77.9083 116.8438 77.7823 C 116.6677 77.6555 116.3997 77.593 116.0379 77.593 L 110.5229 77.593 C 110.1612 77.593 109.8932 77.6555 109.7171 77.7823 C 109.541 77.9083 109.4525 78.1002 109.4525 78.359 C 109.4525 78.6204 109.541 78.8132 109.7171 78.9374 C 109.8932 79.0624 110.1612 79.125 110.5229 79.125 L 116.0379 79.125 C 116.3997 79.125 116.6677 79.0624 116.8438 78.9374 ZM 108.4064 85.957 C 108.5825 85.8329 108.671 85.6401 108.671 85.3787 C 108.671 85.1199 108.5825 84.9279 108.4064 84.802 C 108.2303 84.6752 107.9623 84.6127 107.6006 84.6127 L 102.0856 84.6127 C 101.7239 84.6127 101.4558 84.6752 101.2798 84.802 C 101.1037 84.9279 101.0152 85.1199 101.0152 85.3787 C 101.0152 85.6401 101.1037 85.8329 101.2798 85.957 C 101.4558 86.0821 101.7239 86.1446 102.0856 86.1446 L 107.6006 86.1446 C 107.9623 86.1446 108.2303 86.0821 108.4064 85.957 ZM 95.574 61.9627 C 95.75 61.8385 95.8385 61.6457 95.8385 61.3843 C 95.8385 61.1255 95.75 60.9336 95.574 60.8076 C 95.3978 60.6808 95.1298 60.6183 94.7681 60.6183 L 89.2531 60.6183 C 88.8914 60.6183 88.6234 60.6808 88.4473 60.8076 C 88.2712 60.9336 88.1827 61.1255 88.1827 61.3843 C 88.1827 61.6457 88.2712 61.8385 88.4473 61.9627 C 88.6234 62.0877 88.8914 62.1503 89.2531 62.1503 L 94.7681 62.1503 C 95.1298 62.1503 95.3978 62.0877 95.574 61.9627 ZM 92.3264 40.6223 C 92.5024 40.4981 92.5909 40.3053 92.5909 40.0439 C 92.5909 39.7851 92.5024 39.5932 92.3264 39.4673 C 92.1503 39.3405 91.8822 39.2779 91.5205 39.2779 L 86.0056 39.2779 C 85.6438 39.2779 85.3758 39.3405 85.1996 39.4673 C 85.0236 39.5932 84.9351 39.7851 84.9351 40.0439 C 84.9351 40.3053 85.0236 40.4981 85.1996 40.6223 C 85.3758 40.7473 85.6438 40.8099 86.0056 40.8099 L 91.5205 40.8099 C 91.8822 40.8099 92.1503 40.7473 92.3264 40.6223 ZM 123.9747 39.4998 C 123.8506 39.3235 123.6581 39.2354 123.397 39.2354 C 123.1385 39.2354 122.9468 39.3235 122.821 39.4998 C 122.6945 39.6761 122.632 39.9449 122.632 40.3066 L 122.632 45.8286 C 122.632 46.1904 122.6945 46.4591 122.821 46.6354 C 122.9468 46.8117 123.1385 46.8999 123.397 46.8999 C 123.6581 46.8999 123.8506 46.8117 123.9747 46.6354 C 124.0997 46.4591 124.1621 46.1904 124.1621 45.8286 L 124.1621 40.3066 C 124.1621 39.9449 124.0997 39.6761 123.9747 39.4998 ZM 132.0156 56.8193 C 131.8915 56.643 131.699 56.5549 131.4379 56.5549 C 131.1794 56.5549 130.9877 56.643 130.8619 56.8193 C 130.7354 56.9956 130.6729 57.2644 130.6729 57.6261 L 130.6729 63.1481 C 130.6729 63.5098 130.7354 63.7786 130.8619 63.9549 C 130.9877 64.1312 131.1794 64.2194 131.4379 64.2194 C 131.699 64.2194 131.8915 64.1312 132.0156 63.9549 C 132.1406 63.7786 132.203 63.5098 132.203 63.1481 L 132.203 57.6261 C 132.203 57.2644 132.1406 56.9956 132.0156 56.8193 ZM 161.1719 72.995 C 161.0479 72.8187 160.8553 72.7306 160.5942 72.7306 C 160.3358 72.7306 160.144 72.8187 160.0183 72.995 C 159.8916 73.1713 159.8292 73.4401 159.8292 73.8018 L 159.8292 79.3239 C 159.8292 79.6855 159.8916 79.9543 160.0183 80.1306 C 160.144 80.3069 160.3358 80.3951 160.5942 80.3951 C 160.8553 80.3951 161.0479 80.3069 161.1719 80.1306 C 161.2968 79.9543 161.3593 79.6855 161.3593 79.3239 L 161.3593 73.8018 C 161.3593 73.4401 161.2968 73.1713 161.1719 72.995 ZM 104.0173 35.7047 C 103.8933 35.5284 103.7007 35.4402 103.4396 35.4402 C 103.1811 35.4402 102.9894 35.5284 102.8636 35.7047 C 102.737 35.881 102.6746 36.1498 102.6746 36.5115 L 102.6746 42.0335 C 102.6746 42.3952 102.737 42.664 102.8636 42.8403 C 102.9894 43.0166 103.1811 43.1047 103.4396 43.1047 C 103.7007 43.1047 103.8933 43.0166 104.0173 42.8403 C 104.1422 42.664 104.2047 42.3952 104.2047 42.0335 L 104.2047 36.5115 C 104.2047 36.1498 104.1422 35.881 104.0173 35.7047 ZM 106.8919 63.562 C 106.7679 63.3856 106.5753 63.2975 106.3142 63.2975 C 106.0557 63.2975 105.864 63.3856 105.7383 63.562 C 105.6116 63.7382 105.5491 64.007 105.5491 64.3687 L 105.5491 69.8907 C 105.5491 70.2524 105.6116 70.5212 105.7383 70.6975 C 105.864 70.8738 106.0557 70.962 106.3142 70.962 C 106.5753 70.962 106.7679 70.8738 106.8919 70.6975 C 107.0168 70.5212 107.0793 70.2524 107.0793 69.8907 L 107.0793 64.3687 C 107.0793 64.007 107.0168 63.7382 106.8919 63.562 ZM 97.0624 82.5766 C 96.9384 82.4003 96.7458 82.3122 96.4847 82.3122 C 96.2263 82.3122 96.0345 82.4003 95.9088 82.5766 C 95.7821 82.7529 95.7197 83.0217 95.7197 83.3834 L 95.7197 88.9054 C 95.7197 89.2671 95.7821 89.5359 95.9088 89.7122 C 96.0345 89.8885 96.2263 89.9767 96.4847 89.9767 C 96.7458 89.9767 96.9384 89.8885 97.0624 89.7122 C 97.1873 89.5359 97.2498 89.2671 97.2498 88.9054 L 97.2498 83.3834 C 97.2498 83.0217 97.1873 82.7529 97.0624 82.5766 Z" fill="#a5ce37"/>
				<path d="M 104.8431 74.3242 L 104.8431 79.8462 C 104.8431 80.2079 104.7806 80.4767 104.6558 80.653 C 104.5317 80.8293 104.3391 80.9174 104.0781 80.9174 C 103.8195 80.9174 103.6279 80.8293 103.5021 80.653 C 103.3754 80.4767 103.313 80.2079 103.313 79.8462 L 103.313 74.3242 C 103.313 73.9625 103.3754 73.6937 103.5021 73.5174 C 103.6279 73.3411 103.8195 73.2529 104.0781 73.2529 C 104.3391 73.2529 104.5317 73.3411 104.6558 73.5174 C 104.7806 73.6937 104.8431 73.9625 104.8431 74.3242 ZM 160.9542 32.468 C 161.1302 32.3438 161.2188 32.151 161.2188 31.8896 C 161.2188 31.6308 161.1302 31.4389 160.9542 31.313 C 160.7781 31.1862 160.5101 31.1236 160.1484 31.1236 L 154.6334 31.1236 C 154.2717 31.1236 154.0037 31.1862 153.8276 31.313 C 153.6514 31.4389 153.563 31.6308 153.563 31.8896 C 153.563 32.151 153.6514 32.3438 153.8276 32.468 C 154.0037 32.593 154.2717 32.6556 154.6334 32.6556 L 160.1484 32.6556 C 160.5101 32.6556 160.7781 32.593 160.9542 32.468 ZM 144.4786 70.4965 C 144.6547 70.3723 144.7432 70.1795 144.7432 69.9181 C 144.7432 69.6593 144.6547 69.4674 144.4786 69.3415 C 144.3025 69.2147 144.0345 69.1521 143.6728 69.1521 L 138.1577 69.1521 C 137.796 69.1521 137.528 69.2147 137.3519 69.3415 C 137.1758 69.4674 137.0874 69.6593 137.0874 69.9181 C 137.0874 70.1795 137.1758 70.3723 137.3519 70.4965 C 137.528 70.6216 137.796 70.6841 138.1577 70.6841 L 143.6728 70.6841 C 144.0345 70.6841 144.3025 70.6216 144.4786 70.4965 ZM 124.6583 69.3623 C 124.8343 69.2381 124.9228 69.0453 124.9228 68.7839 C 124.9228 68.5251 124.8343 68.3332 124.6583 68.2073 C 124.4822 68.0804 124.2141 68.0179 123.8524 68.0179 L 118.3374 68.0179 C 117.9757 68.0179 117.7076 68.0804 117.5316 68.2073 C 117.3555 68.3332 117.267 68.5251 117.267 68.7839 C 117.267 69.0453 117.3555 69.2381 117.5316 69.3623 C 117.7076 69.4874 117.9757 69.5499 118.3374 69.5499 L 123.8524 69.5499 C 124.2141 69.5499 124.4822 69.4874 124.6583 69.3623 ZM 94.396 74.7545 C 94.5721 74.6303 94.6606 74.4375 94.6606 74.1761 C 94.6606 73.9173 94.5721 73.7254 94.396 73.5995 C 94.2199 73.4727 93.9519 73.4102 93.5901 73.4102 L 88.0751 73.4102 C 87.7134 73.4102 87.4454 73.4727 87.2693 73.5995 C 87.0933 73.7254 87.0048 73.9173 87.0048 74.1761 C 87.0048 74.4375 87.0933 74.6303 87.2693 74.7545 C 87.4454 74.8795 87.7134 74.9421 88.0751 74.9421 L 93.5901 74.9421 C 93.9519 74.9421 94.2199 74.8795 94.396 74.7545 ZM 105.2465 60.9653 C 105.4225 60.8411 105.511 60.6483 105.511 60.3869 C 105.511 60.1281 105.4225 59.9362 105.2465 59.8102 C 105.0703 59.6834 104.8023 59.6209 104.4406 59.6209 L 98.9256 59.6209 C 98.5639 59.6209 98.2959 59.6834 98.1198 59.8102 C 97.9437 59.9362 97.8552 60.1281 97.8552 60.3869 C 97.8552 60.6483 97.9437 60.8411 98.1198 60.9653 C 98.2959 61.0903 98.5639 61.1529 98.9256 61.1529 L 104.4406 61.1529 C 104.8023 61.1529 105.0703 61.0903 105.2465 60.9653 ZM 98.8953 55.263 C 99.0714 55.1389 99.1599 54.946 99.1599 54.6846 C 99.1599 54.4258 99.0714 54.2339 98.8953 54.108 C 98.7192 53.9812 98.4511 53.9187 98.0894 53.9187 L 92.5744 53.9187 C 92.2127 53.9187 91.9446 53.9812 91.7686 54.108 C 91.5925 54.2339 91.504 54.4258 91.504 54.6846 C 91.504 54.946 91.5925 55.1389 91.7686 55.263 C 91.9446 55.3881 92.2127 55.4506 92.5744 55.4506 L 98.0894 55.4506 C 98.4511 55.4506 98.7192 55.3881 98.8953 55.263 ZM 111.9871 46.3771 C 112.1632 46.2529 112.2516 46.0601 112.2516 45.7987 C 112.2516 45.5399 112.1632 45.348 111.9871 45.222 C 111.811 45.0952 111.543 45.0327 111.1813 45.0327 L 105.6663 45.0327 C 105.3046 45.0327 105.0365 45.0952 104.8604 45.222 C 104.6844 45.348 104.5959 45.5399 104.5959 45.7987 C 104.5959 46.0601 104.6844 46.2529 104.8604 46.3771 C 105.0365 46.5021 105.3046 46.5646 105.6663 46.5646 L 111.1813 46.5646 C 111.543 46.5646 111.811 46.5021 111.9871 46.3771 ZM 120.2067 37.2527 C 120.3828 37.1285 120.4713 36.9357 120.4713 36.6743 C 120.4713 36.4155 120.3828 36.2236 120.2067 36.0977 C 120.0306 35.9709 119.7626 35.9084 119.4008 35.9084 L 113.8859 35.9084 C 113.5242 35.9084 113.2561 35.9709 113.08 36.0977 C 112.9039 36.2236 112.8155 36.4155 112.8155 36.6743 C 112.8155 36.9357 112.9039 37.1285 113.08 37.2527 C 113.2561 37.3778 113.5242 37.4403 113.8859 37.4403 L 119.4008 37.4403 C 119.7626 37.4403 120.0306 37.3778 120.2067 37.2527 ZM 106.4218 90.4665 C 106.5978 90.3423 106.6863 90.1495 106.6863 89.8881 C 106.6863 89.6293 106.5978 89.4374 106.4218 89.3114 C 106.2457 89.1847 105.9777 89.1221 105.616 89.1221 L 100.101 89.1221 C 99.7393 89.1221 99.4712 89.1847 99.2952 89.3114 C 99.119 89.4374 99.0306 89.6293 99.0306 89.8881 C 99.0306 90.1495 99.119 90.3423 99.2952 90.4665 C 99.4712 90.5915 99.7393 90.6541 100.101 90.6541 L 105.616 90.6541 C 105.9777 90.6541 106.2457 90.5915 106.4218 90.4665 ZM 128.4861 38.4803 C 128.3621 38.304 128.1696 38.2158 127.9084 38.2158 C 127.6499 38.2158 127.4583 38.304 127.3325 38.4803 C 127.2058 38.6566 127.1434 38.9254 127.1434 39.287 L 127.1434 44.8091 C 127.1434 45.1708 127.2058 45.4396 127.3325 45.6159 C 127.4583 45.7922 127.6499 45.8803 127.9084 45.8803 C 128.1696 45.8803 128.3621 45.7922 128.4861 45.6159 C 128.611 45.4396 128.6735 45.1708 128.6735 44.8091 L 128.6735 39.287 C 128.6735 38.9254 128.611 38.6566 128.4861 38.4803 ZM 127.4175 55.1254 C 127.2934 54.9491 127.1008 54.861 126.8398 54.861 C 126.5813 54.861 126.3896 54.9491 126.2638 55.1254 C 126.1372 55.3017 126.0748 55.5705 126.0748 55.9322 L 126.0748 61.4542 C 126.0748 61.8159 126.1372 62.0847 126.2638 62.261 C 126.3896 62.4373 126.5813 62.5255 126.8398 62.5255 C 127.1008 62.5255 127.2934 62.4373 127.4175 62.261 C 127.5424 62.0847 127.6049 61.8159 127.6049 61.4542 L 127.6049 55.9322 C 127.6049 55.5705 127.5424 55.3017 127.4175 55.1254 ZM 139.4493 51.0285 C 139.3253 50.8522 139.1328 50.764 138.8716 50.764 C 138.6132 50.764 138.4214 50.8522 138.2957 51.0285 C 138.1691 51.2048 138.1066 51.4736 138.1066 51.8353 L 138.1066 57.3573 C 138.1066 57.719 138.1691 57.9878 138.2957 58.1641 C 138.4214 58.3404 138.6132 58.4285 138.8716 58.4285 C 139.1328 58.4285 139.3253 58.3404 139.4493 58.1641 C 139.5742 57.9878 139.6367 57.719 139.6367 57.3573 L 139.6367 51.8353 C 139.6367 51.4736 139.5742 51.2048 139.4493 51.0285 ZM 180.0381 60.9609 C 179.9141 60.7846 179.7215 60.6965 179.4604 60.6965 C 179.202 60.6965 179.0102 60.7846 178.8845 60.9609 C 178.7578 61.1372 178.6954 61.406 178.6954 61.7677 L 178.6954 67.2897 C 178.6954 67.6515 178.7578 67.9202 178.8845 68.0966 C 179.0102 68.2728 179.202 68.361 179.4604 68.361 C 179.7215 68.361 179.9141 68.2728 180.0381 68.0966 C 180.163 67.9202 180.2255 67.6515 180.2255 67.2897 L 180.2255 61.7677 C 180.2255 61.406 180.163 61.1372 180.0381 60.9609 ZM 111.8535 59.2818 C 111.7294 59.1055 111.5369 59.0173 111.2758 59.0173 C 111.0173 59.0173 110.8256 59.1055 110.6998 59.2818 C 110.5732 59.4581 110.5108 59.7269 110.5108 60.0886 L 110.5108 65.6106 C 110.5108 65.9723 110.5732 66.2411 110.6998 66.4174 C 110.8256 66.5937 111.0173 66.6818 111.2758 66.6818 C 111.5369 66.6818 111.7294 66.5937 111.8535 66.4174 C 111.9785 66.2411 112.0409 65.9723 112.0409 65.6106 L 112.0409 60.0886 C 112.0409 59.7269 111.9785 59.4581 111.8535 59.2818 ZM 122.7118 79.118 C 122.5878 78.9417 122.3952 78.8536 122.1341 78.8536 C 121.8755 78.8536 121.6839 78.9417 121.5581 79.118 C 121.4315 79.2943 121.369 79.5631 121.369 79.9248 L 121.369 85.4468 C 121.369 85.8085 121.4315 86.0773 121.5581 86.2536 C 121.6839 86.4299 121.8755 86.5181 122.1341 86.5181 C 122.3952 86.5181 122.5878 86.4299 122.7118 86.2536 C 122.8367 86.0773 122.8991 85.8085 122.8991 85.4468 L 122.8991 79.9248 C 122.8991 79.5631 122.8367 79.2943 122.7118 79.118 Z" fill="#f29f20"/>
				<path d="M 109.6086 35.4116 L 109.6086 40.9336 C 109.6086 41.2953 109.5462 41.5641 109.4213 41.7404 C 109.2972 41.9167 109.1047 42.0049 108.8436 42.0049 C 108.5851 42.0049 108.3934 41.9167 108.2676 41.7404 C 108.141 41.5641 108.0785 41.2953 108.0785 40.9336 L 108.0785 35.4116 C 108.0785 35.0499 108.141 34.7811 108.2676 34.6048 C 108.3934 34.4285 108.5851 34.3404 108.8436 34.3404 C 109.1047 34.3404 109.2972 34.4285 109.4213 34.6048 C 109.5462 34.7811 109.6086 35.0499 109.6086 35.4116 ZM 106.9344 25.7792 C 106.8104 25.6029 106.6179 25.5148 106.3568 25.5148 C 106.0982 25.5148 105.9066 25.6029 105.7808 25.7792 C 105.6541 25.9555 105.5917 26.2243 105.5917 26.586 L 105.5917 32.108 C 105.5917 32.4697 105.6541 32.7385 105.7808 32.9148 C 105.9066 33.0911 106.0982 33.1793 106.3568 33.1793 C 106.6179 33.1793 106.8104 33.0911 106.9344 32.9148 C 107.0593 32.7385 107.1218 32.4697 107.1218 32.108 L 107.1218 26.586 C 107.1218 26.2243 107.0593 25.9555 106.9344 25.7792 ZM 160.903 55.4658 C 161.0791 55.3416 161.1676 55.1488 161.1676 54.8875 C 161.1676 54.6286 161.0791 54.4367 160.903 54.3108 C 160.7269 54.184 160.4589 54.1215 160.0972 54.1215 L 154.5822 54.1215 C 154.2205 54.1215 153.9525 54.184 153.7764 54.3108 C 153.6003 54.4367 153.5118 54.6286 153.5118 54.8875 C 153.5118 55.1488 153.6003 55.3416 153.7764 55.4658 C 153.9525 55.5909 154.2205 55.6534 154.5822 55.6534 L 160.0972 55.6534 C 160.4589 55.6534 160.7269 55.5909 160.903 55.4658 ZM 143.8454 63.8759 C 144.0215 63.7517 144.1099 63.5589 144.1099 63.2975 C 144.1099 63.0387 144.0215 62.8467 143.8454 62.7208 C 143.6693 62.5941 143.4012 62.5315 143.0396 62.5315 L 137.5246 62.5315 C 137.1628 62.5315 136.8948 62.5941 136.7187 62.7208 C 136.5427 62.8467 136.4542 63.0387 136.4542 63.2975 C 136.4542 63.5589 136.5427 63.7517 136.7187 63.8759 C 136.8948 64.0009 137.1628 64.0635 137.5246 64.0635 L 143.0396 64.0635 C 143.4012 64.0635 143.6693 64.0009 143.8454 63.8759 ZM 127.7913 50.969 C 127.9674 50.8448 128.0558 50.652 128.0558 50.3906 C 128.0558 50.1318 127.9674 49.9399 127.7913 49.814 C 127.6152 49.6872 127.3472 49.6246 126.9855 49.6246 L 121.4705 49.6246 C 121.1088 49.6246 120.8408 49.6872 120.6647 49.814 C 120.4886 49.9399 120.4001 50.1318 120.4001 50.3906 C 120.4001 50.652 120.4886 50.8448 120.6647 50.969 C 120.8408 51.0941 121.1088 51.1566 121.4705 51.1566 L 126.9855 51.1566 C 127.3472 51.1566 127.6152 51.0941 127.7913 50.969 ZM 125.1318 76.3451 C 125.3079 76.2209 125.3964 76.0281 125.3964 75.7667 C 125.3964 75.5079 125.3079 75.3159 125.1318 75.19 C 124.9557 75.0632 124.6877 75.0007 124.326 75.0007 L 118.811 75.0007 C 118.4493 75.0007 118.1813 75.0632 118.0052 75.19 C 117.8291 75.3159 117.7406 75.5079 117.7406 75.7667 C 117.7406 76.0281 117.8291 76.2209 118.0052 76.3451 C 118.1813 76.4701 118.4493 76.5327 118.811 76.5327 L 124.326 76.5327 C 124.6877 76.5327 124.9557 76.4701 125.1318 76.3451 ZM 141.3204 75.3672 C 141.4964 75.243 141.5849 75.0502 141.5849 74.7888 C 141.5849 74.53 141.4964 74.3381 141.3204 74.2122 C 141.1443 74.0854 140.8762 74.0228 140.5145 74.0228 L 134.9995 74.0228 C 134.6378 74.0228 134.3698 74.0854 134.1937 74.2122 C 134.0176 74.3381 133.9291 74.53 133.9291 74.7888 C 133.9291 75.0502 134.0176 75.243 134.1937 75.3672 C 134.3698 75.4922 134.6378 75.5548 134.9995 75.5548 L 140.5145 75.5548 C 140.8762 75.5548 141.1443 75.4922 141.3204 75.3672 ZM 117.6895 83.264 C 117.8655 83.1398 117.954 82.947 117.954 82.6856 C 117.954 82.4268 117.8655 82.2349 117.6895 82.1089 C 117.5134 81.9822 117.2454 81.9196 116.8837 81.9196 L 111.3687 81.9196 C 111.0069 81.9196 110.7389 81.9822 110.5628 82.1089 C 110.3867 82.2349 110.2982 82.4268 110.2982 82.6856 C 110.2982 82.947 110.3867 83.1398 110.5628 83.264 C 110.7389 83.389 111.0069 83.4516 111.3687 83.4516 L 116.8837 83.4516 C 117.2454 83.4516 117.5134 83.389 117.6895 83.264 ZM 96.6201 69.7244 C 96.7961 69.6003 96.8846 69.4075 96.8846 69.1461 C 96.8846 68.8873 96.7961 68.6953 96.6201 68.5694 C 96.4439 68.4426 96.1759 68.3801 95.8142 68.3801 L 90.2992 68.3801 C 89.9375 68.3801 89.6695 68.4426 89.4933 68.5694 C 89.3173 68.6953 89.2288 68.8873 89.2288 69.1461 C 89.2288 69.4075 89.3173 69.6003 89.4933 69.7244 C 89.6695 69.8495 89.9375 69.912 90.2992 69.912 L 95.8142 69.912 C 96.1759 69.912 96.4439 69.8495 96.6201 69.7244 ZM 94.2416 49.3867 C 94.4177 49.2625 94.5062 49.0697 94.5062 48.8083 C 94.5062 48.5495 94.4177 48.3575 94.2416 48.2316 C 94.0655 48.1049 93.7975 48.0423 93.4357 48.0423 L 87.9208 48.0423 C 87.5591 48.0423 87.291 48.1049 87.1149 48.2316 C 86.9388 48.3575 86.8504 48.5495 86.8504 48.8083 C 86.8504 49.0697 86.9388 49.2625 87.1149 49.3867 C 87.291 49.5117 87.5591 49.5742 87.9208 49.5742 L 93.4357 49.5742 C 93.7975 49.5742 94.0655 49.5117 94.2416 49.3867 ZM 104.8214 51.3424 C 104.9975 51.2182 105.0859 51.0255 105.0859 50.764 C 105.0859 50.5052 104.9975 50.3133 104.8214 50.1874 C 104.6453 50.0606 104.3773 49.998 104.0156 49.998 L 98.5005 49.998 C 98.1389 49.998 97.8708 50.0606 97.6948 50.1874 C 97.5187 50.3133 97.4302 50.5052 97.4302 50.764 C 97.4302 51.0255 97.5187 51.2182 97.6948 51.3424 C 97.8708 51.4675 98.1389 51.53 98.5005 51.53 L 104.0156 51.53 C 104.3773 51.53 104.6453 51.4675 104.8214 51.3424 ZM 90.6167 58.2184 C 90.7928 58.0942 90.8812 57.9014 90.8812 57.64 C 90.8812 57.3812 90.7928 57.1893 90.6167 57.0633 C 90.4406 56.9365 90.1725 56.874 89.8109 56.874 L 84.2958 56.874 C 83.9341 56.874 83.6661 56.9365 83.49 57.0633 C 83.314 57.1893 83.2255 57.3812 83.2255 57.64 C 83.2255 57.9014 83.314 58.0942 83.49 58.2184 C 83.6661 58.3434 83.9341 58.4059 84.2958 58.4059 L 89.8109 58.4059 C 90.1725 58.4059 90.4406 58.3434 90.6167 58.2184 ZM 132.1085 46.4435 C 131.9844 46.2672 131.7919 46.1791 131.5308 46.1791 C 131.2722 46.1791 131.0806 46.2672 130.9548 46.4435 C 130.8281 46.6198 130.7657 46.8886 130.7657 47.2503 L 130.7657 52.7723 C 130.7657 53.134 130.8281 53.4028 130.9548 53.5791 C 131.0806 53.7554 131.2722 53.8436 131.5308 53.8436 C 131.7919 53.8436 131.9844 53.7554 132.1085 53.5791 C 132.2333 53.4028 132.2958 53.134 132.2958 52.7723 L 132.2958 47.2503 C 132.2958 46.8886 132.2333 46.6198 132.1085 46.4435 ZM 108.1731 52.0932 C 108.0491 51.9169 107.8565 51.8287 107.5954 51.8287 C 107.3369 51.8287 107.1452 51.9169 107.0194 52.0932 C 106.8928 52.2695 106.8303 52.5383 106.8303 52.9 L 106.8303 58.422 C 106.8303 58.7837 106.8928 59.0525 107.0194 59.2288 C 107.1452 59.4051 107.3369 59.4933 107.5954 59.4933 C 107.8565 59.4933 108.0491 59.4051 108.1731 59.2288 C 108.298 59.0525 108.3605 58.7837 108.3605 58.422 L 108.3605 52.9 C 108.3605 52.5383 108.298 52.2695 108.1731 52.0932 ZM 127.9301 83.7234 C 127.806 83.5471 127.6135 83.459 127.3524 83.459 C 127.0939 83.459 126.9022 83.5471 126.7764 83.7234 C 126.6498 83.8997 126.5874 84.1685 126.5874 84.5302 L 126.5874 90.0522 C 126.5874 90.4139 126.6498 90.6827 126.7764 90.859 C 126.9022 91.0353 127.0939 91.1234 127.3524 91.1234 C 127.6135 91.1234 127.806 91.0353 127.9301 90.859 C 128.0551 90.6827 128.1175 90.4139 128.1175 90.0522 L 128.1175 84.5302 C 128.1175 84.1685 128.0551 83.8997 127.9301 83.7234 ZM 111.2515 88.1004 C 111.1275 87.9241 110.9349 87.8359 110.6738 87.8359 C 110.4153 87.8359 110.2236 87.9241 110.0978 88.1004 C 109.9713 88.2767 109.9088 88.5454 109.9088 88.9072 L 109.9088 94.4292 C 109.9088 94.7909 109.9713 95.0597 110.0978 95.236 C 110.2236 95.4123 110.4153 95.5004 110.6738 95.5004 C 110.9349 95.5004 111.1275 95.4123 111.2515 95.236 C 111.3765 95.0597 111.4389 94.7909 111.4389 94.4292 L 111.4389 88.9072 C 111.4389 88.5454 111.3765 88.2767 111.2515 88.1004 Z" fill="#e51e41"/>
				<path d="M 99.0045 73.8018 L 99.0045 79.3239 C 99.0045 79.6855 98.9421 79.9543 98.8171 80.1306 C 98.6931 80.3069 98.5005 80.3951 98.2394 80.3951 C 97.981 80.3951 97.7893 80.3069 97.6636 80.1306 C 97.5369 79.9543 97.4744 79.6855 97.4744 79.3239 L 97.4744 73.8018 C 97.4744 73.4401 97.5369 73.1713 97.6636 72.995 C 97.7893 72.8187 97.981 72.7306 98.2394 72.7306 C 98.5005 72.7306 98.6931 72.8187 98.8171 72.995 C 98.9421 73.1713 99.0045 73.4401 99.0045 73.8018 ZM 101.1115 63.8741 C 100.9874 63.6978 100.7949 63.6097 100.5338 63.6097 C 100.2753 63.6097 100.0836 63.6978 99.9578 63.8741 C 99.8312 64.0504 99.7687 64.3192 99.7687 64.6809 L 99.7687 70.2029 C 99.7687 70.5647 99.8312 70.8334 99.9578 71.0098 C 100.0836 71.186 100.2753 71.2742 100.5338 71.2742 C 100.7949 71.2742 100.9874 71.186 101.1115 71.0098 C 101.2364 70.8334 101.2989 70.5647 101.2989 70.2029 L 101.2989 64.6809 C 101.2989 64.3192 101.2364 64.0504 101.1115 63.8741 ZM 119.348 52.3898 C 119.2239 52.2135 119.0313 52.1253 118.7703 52.1253 C 118.5118 52.1253 118.3201 52.2135 118.1943 52.3898 C 118.0677 52.5661 118.0052 52.8348 118.0052 53.1966 L 118.0052 58.7186 C 118.0052 59.0803 118.0677 59.3491 118.1943 59.5254 C 118.3201 59.7017 118.5118 59.7898 118.7703 59.7898 C 119.0313 59.7898 119.2239 59.7017 119.348 59.5254 C 119.4729 59.3491 119.5353 59.0803 119.5353 58.7186 L 119.5353 53.1966 C 119.5353 52.8348 119.4729 52.5661 119.348 52.3898 ZM 117.9861 41.948 C 117.8621 41.7717 117.6695 41.6835 117.4084 41.6835 C 117.1499 41.6835 116.9583 41.7717 116.8325 41.948 C 116.7058 42.1243 116.6434 42.3931 116.6434 42.7548 L 116.6434 48.2768 C 116.6434 48.6385 116.7058 48.9073 116.8325 49.0836 C 116.9583 49.2599 117.1499 49.348 117.4084 49.348 C 117.6695 49.348 117.8621 49.2599 117.9861 49.0836 C 118.111 48.9073 118.1735 48.6385 118.1735 48.2768 L 118.1735 42.7548 C 118.1735 42.3931 118.111 42.1243 117.9861 41.948 ZM 125.6861 29.0316 C 125.5621 28.8553 125.3695 28.7671 125.1084 28.7671 C 124.8499 28.7671 124.6583 28.8553 124.5325 29.0316 C 124.4058 29.2078 124.3434 29.4766 124.3434 29.8383 L 124.3434 35.3604 C 124.3434 35.7221 124.4058 35.9908 124.5325 36.1671 C 124.6583 36.3434 124.8499 36.4316 125.1084 36.4316 C 125.3695 36.4316 125.5621 36.3434 125.6861 36.1671 C 125.811 35.9908 125.8735 35.7221 125.8735 35.3604 L 125.8735 29.8383 C 125.8735 29.4766 125.811 29.2078 125.6861 29.0316 ZM 149.5737 25.7649 C 149.4497 25.5886 149.2571 25.5004 148.996 25.5004 C 148.7376 25.5004 148.5458 25.5886 148.4201 25.7649 C 148.2935 25.9412 148.231 26.21 148.231 26.5717 L 148.231 32.0937 C 148.231 32.4554 148.2935 32.7242 148.4201 32.9005 C 148.5458 33.0768 148.7376 33.1649 148.996 33.1649 C 149.2571 33.1649 149.4497 33.0768 149.5737 32.9005 C 149.6987 32.7242 149.7611 32.4554 149.7611 32.0937 L 149.7611 26.5717 C 149.7611 26.21 149.6987 25.9412 149.5737 25.7649 ZM 142.147 43.311 C 142.3231 43.1868 142.4116 42.994 142.4116 42.7326 C 142.4116 42.4738 142.3231 42.2819 142.147 42.156 C 141.9709 42.0292 141.7029 41.9666 141.3412 41.9666 L 135.8262 41.9666 C 135.4644 41.9666 135.1964 42.0292 135.0203 42.156 C 134.8442 42.2819 134.7558 42.4738 134.7558 42.7326 C 134.7558 42.994 134.8442 43.1868 135.0203 43.311 C 135.1964 43.4361 135.4644 43.4986 135.8262 43.4986 L 141.3412 43.4986 C 141.7029 43.4986 141.9709 43.4361 142.147 43.311 ZM 153.7928 60.3682 C 153.9689 60.244 154.0574 60.0512 154.0574 59.7898 C 154.0574 59.531 153.9689 59.3391 153.7928 59.2132 C 153.6168 59.0864 153.3488 59.0239 152.9871 59.0239 L 147.472 59.0239 C 147.1103 59.0239 146.8423 59.0864 146.6662 59.2132 C 146.4901 59.3391 146.4016 59.531 146.4016 59.7898 C 146.4016 60.0512 146.4901 60.244 146.6662 60.3682 C 146.8423 60.4933 147.1103 60.5558 147.472 60.5558 L 152.9871 60.5558 C 153.3488 60.5558 153.6168 60.4933 153.7928 60.3682 ZM 134.4843 67.9254 C 134.6603 67.8013 134.7488 67.6085 134.7488 67.347 C 134.7488 67.0883 134.6603 66.8963 134.4843 66.7704 C 134.3082 66.6436 134.0402 66.5811 133.6785 66.5811 L 128.1635 66.5811 C 127.8018 66.5811 127.5337 66.6436 127.3577 66.7704 C 127.1815 66.8963 127.093 67.0883 127.093 67.347 C 127.093 67.6085 127.1815 67.8013 127.3577 67.9254 C 127.5337 68.0505 127.8018 68.113 128.1635 68.113 L 133.6785 68.113 C 134.0402 68.113 134.3082 68.0505 134.4843 67.9254 ZM 115.6042 72.5929 C 115.7803 72.4688 115.8688 72.2759 115.8688 72.0145 C 115.8688 71.7557 115.7803 71.5638 115.6042 71.4379 C 115.4281 71.3111 115.1601 71.2486 114.7984 71.2486 L 109.2833 71.2486 C 108.9216 71.2486 108.6536 71.3111 108.4775 71.4379 C 108.3015 71.5638 108.213 71.7557 108.213 72.0145 C 108.213 72.2759 108.3015 72.4688 108.4775 72.5929 C 108.6536 72.718 108.9216 72.7805 109.2833 72.7805 L 114.7984 72.7805 C 115.1601 72.7805 115.4281 72.718 115.6042 72.5929 ZM 93.8495 80.5219 C 94.0256 80.3977 94.1141 80.2049 94.1141 79.9435 C 94.1141 79.6847 94.0256 79.4927 93.8495 79.3668 C 93.6735 79.2401 93.4054 79.1775 93.0437 79.1775 L 87.5287 79.1775 C 87.167 79.1775 86.8989 79.2401 86.7228 79.3668 C 86.5468 79.4927 86.4583 79.6847 86.4583 79.9435 C 86.4583 80.2049 86.5468 80.3977 86.7228 80.5219 C 86.8989 80.6469 87.167 80.7095 87.5287 80.7095 L 93.0437 80.7095 C 93.4054 80.7095 93.6735 80.6469 93.8495 80.5219 ZM 97.7876 39.8776 C 97.6636 39.7013 97.471 39.6132 97.2099 39.6132 C 96.9514 39.6132 96.7597 39.7013 96.6339 39.8776 C 96.5073 40.0539 96.4448 40.3227 96.4448 40.6844 L 96.4448 46.2064 C 96.4448 46.5681 96.5073 46.8369 96.6339 47.0132 C 96.7597 47.1895 96.9514 47.2776 97.2099 47.2776 C 97.471 47.2776 97.6636 47.1895 97.7876 47.0132 C 97.9125 46.8369 97.9749 46.5681 97.9749 46.2064 L 97.9749 40.6844 C 97.9749 40.3227 97.9125 40.0539 97.7876 39.8776 ZM 86.2892 63.562 C 86.1651 63.3856 85.9725 63.2975 85.7115 63.2975 C 85.453 63.2975 85.2613 63.3856 85.1355 63.562 C 85.0089 63.7382 84.9464 64.007 84.9464 64.3687 L 84.9464 69.8907 C 84.9464 70.2524 85.0089 70.5212 85.1355 70.6975 C 85.2613 70.8738 85.453 70.962 85.7115 70.962 C 85.9725 70.962 86.1651 70.8738 86.2892 70.6975 C 86.4141 70.5212 86.4766 70.2524 86.4766 69.8907 L 86.4766 64.3687 C 86.4766 64.007 86.4141 63.7382 86.2892 63.562 ZM 118.9828 86.1095 C 118.8588 85.9332 118.6662 85.845 118.4051 85.845 C 118.1465 85.845 117.9549 85.9332 117.8291 86.1095 C 117.7025 86.2858 117.64 86.5546 117.64 86.9163 L 117.64 92.4383 C 117.64 92.8 117.7025 93.0688 117.8291 93.2451 C 117.9549 93.4214 118.1465 93.5095 118.4051 93.5095 C 118.6662 93.5095 118.8588 93.4214 118.9828 93.2451 C 119.1077 93.0688 119.1701 92.8 119.1701 92.4383 L 119.1701 86.9163 C 119.1701 86.5546 119.1077 86.2858 118.9828 86.1095 ZM 132.7391 79.7016 C 132.615 79.5253 132.4224 79.4372 132.1614 79.4372 C 131.9028 79.4372 131.7112 79.5253 131.5854 79.7016 C 131.4587 79.8779 131.3963 80.1467 131.3963 80.5084 L 131.3963 86.0304 C 131.3963 86.3922 131.4587 86.6609 131.5854 86.8372 C 131.7112 87.0135 131.9028 87.1017 132.1614 87.1017 C 132.4224 87.1017 132.615 87.0135 132.7391 86.8372 C 132.864 86.6609 132.9264 86.3922 132.9264 86.0304 L 132.9264 80.5084 C 132.9264 80.1467 132.864 79.8779 132.7391 79.7016 Z" fill="#00a2e5"/>
				<path d="M 201.903 43.4658 C 202.0791 43.3416 202.1676 43.1488 202.1676 42.8875 C 202.1676 42.6286 202.0791 42.4367 201.903 42.3108 C 201.7269 42.184 201.4589 42.1215 201.0972 42.1215 L 195.5822 42.1215 C 195.2205 42.1215 194.9525 42.184 194.7764 42.3108 C 194.6003 42.4367 194.5118 42.6286 194.5118 42.8875 C 194.5118 43.1488 194.6003 43.3416 194.7764 43.4658 C 194.9525 43.5909 195.2205 43.6534 195.5822 43.6534 L 201.0972 43.6534 C 201.4589 43.6534 201.7269 43.5909 201.903 43.4658 Z" fill="#e51e41"/>
				<path d="M 125.4218 20.4665 C 125.5978 20.3423 125.6863 20.1495 125.6863 19.8881 C 125.6863 19.6293 125.5978 19.4374 125.4218 19.3114 C 125.2457 19.1847 124.9777 19.1221 124.616 19.1221 L 119.101 19.1221 C 118.7393 19.1221 118.4712 19.1847 118.2952 19.3114 C 118.119 19.4374 118.0306 19.6293 118.0306 19.8881 C 118.0306 20.1495 118.119 20.3423 118.2952 20.4665 C 118.4712 20.5915 118.7393 20.6541 119.101 20.6541 L 124.616 20.6541 C 124.9777 20.6541 125.2457 20.5915 125.4218 20.4665 Z" fill="#f29f20"/>
				<path d="M 215.8438 72.9374 C 216.0198 72.8132 216.1083 72.6204 216.1083 72.359 C 216.1083 72.1002 216.0198 71.9083 215.8438 71.7823 C 215.6677 71.6555 215.3997 71.593 215.0379 71.593 L 209.5229 71.593 C 209.1612 71.593 208.8932 71.6555 208.7171 71.7823 C 208.541 71.9083 208.4525 72.1002 208.4525 72.359 C 208.4525 72.6204 208.541 72.8132 208.7171 72.9374 C 208.8932 73.0624 209.1612 73.125 209.5229 73.125 L 215.0379 73.125 C 215.3997 73.125 215.6677 73.0624 215.8438 72.9374 Z" fill="#a5ce37"/>
			</g>
			<path d="M 124.7603 29.031 L 114.3547 23.0703 C 112.1877 21.8295 108.6766 19.8165 106.5112 18.5757 L 96.1041 12.6165 C 93.9386 11.3756 90.4261 11.3756 88.2606 12.6165 L 77.8551 18.5757 C 75.6881 19.8165 72.177 21.8295 70.0108 23.0703 L 59.6045 29.031 C 57.4391 30.2718 55.6835 33.2883 55.6835 35.7698 L 55.6827 47.6928 C 55.6827 50.1744 55.6827 54.1959 55.6827 56.6774 L 55.6835 68.6004 C 55.6835 71.082 57.4391 74.0984 59.6045 75.3392 L 70.0108 81.3015 C 72.177 82.5422 75.6881 84.5537 77.8551 85.7945 L 88.2606 91.7552 C 90.4261 92.996 93.9386 92.996 96.1041 91.7552 L 106.5112 85.7945 C 108.6766 84.5537 112.1877 82.5422 114.3547 81.3015 L 124.7603 75.3392 C 126.9257 74.0984 128.6813 71.082 128.6813 68.6004 L 128.6827 56.6774 C 128.6827 54.1959 128.6827 50.1744 128.6827 47.6928 L 128.6813 35.7698 C 128.6813 33.2883 126.9257 30.2718 124.7603 29.031 Z" fill="#ffffff"/>
			<g>
				<path d="M 3.5087 113.9251 C 3.0098 113.9251 2.5201 113.9593 2.0212 113.9683 C 1.8818 113.9593 1.7507 113.9503 1.6104 113.9503 C 1.6104 115.2308 1.6892 116.5005 1.6892 117.7811 C 1.6801 118.424 1.637 119.0778 1.5847 119.7208 C 1.803 119.6956 1.891 119.6866 2.013 119.6866 C 2.1533 119.6866 2.2322 119.6956 2.4413 119.7208 C 2.4064 119.438 2.4064 119.3426 2.3972 118.8798 L 2.389 117.9702 L 2.389 117.0589 C 2.6338 117.0769 2.7301 117.0769 2.9053 117.0769 C 4.0241 117.0769 5.4144 116.7491 5.4144 115.3839 C 5.4144 114.3969 4.7944 113.9251 3.5087 113.9251 ZM 2.7301 116.7761 C 2.5724 116.7761 2.5293 116.7761 2.3807 116.7491 C 2.3807 116.4573 2.3715 116.1656 2.3715 115.8738 L 2.3807 115.0849 C 2.3807 114.577 2.3807 114.5338 2.4064 114.2943 C 2.6861 114.242 2.8081 114.2349 3.1492 114.2349 C 3.9636 114.2349 4.6184 114.4744 4.6184 115.4019 C 4.6184 116.5186 3.6921 116.7761 2.7301 116.7761 ZM 10.3583 118.3557 L 9.7906 117.6514 L 9.1945 116.904 L 9.1432 116.8446 C 10.306 116.6302 10.9186 116.0719 10.9186 115.247 C 10.9186 114.1664 9.9997 113.9341 9.0991 113.9341 C 8.6269 113.9341 8.1638 113.9683 7.6906 113.9683 C 7.4548 113.9683 7.3934 113.9593 7.1843 113.9341 C 7.21 114.2169 7.2008 114.5086 7.21 114.8004 C 7.2283 115.5226 7.2366 115.926 7.2366 116.587 C 7.2366 117.6262 7.2283 118.6816 7.1495 119.7208 C 7.298 119.6956 7.3586 119.6866 7.4906 119.6866 C 7.6126 119.6866 7.7346 119.6956 7.9712 119.7208 C 7.9712 119.4218 7.9446 119.1193 7.9363 118.8203 L 7.9272 117.8586 C 7.918 117.6352 7.918 117.4281 7.918 117.2318 C 7.918 117.1201 7.918 117.0679 7.9272 116.913 L 8.2591 116.913 C 9.0991 117.7379 9.72 118.7428 10.4454 119.6524 C 10.4454 119.6614 10.4637 119.6776 10.4986 119.7208 C 10.6555 119.6956 10.682 119.6866 10.97 119.6866 C 11.2323 119.6866 11.3029 119.6956 11.4946 119.7208 L 11.4946 119.6866 C 11.3203 119.5155 11.2763 119.4723 10.9966 119.1373 L 10.3583 118.3557 ZM 8.2243 116.6122 C 8.0665 116.6122 8.0409 116.6122 7.9272 116.587 L 7.9272 114.9805 C 7.9272 114.6635 7.9363 114.4654 7.9446 114.3627 C 7.9446 114.3627 7.9528 114.3285 7.962 114.2852 C 8.2243 114.2511 8.4957 114.2258 8.758 114.2258 C 9.6329 114.2258 10.1657 114.6293 10.1657 115.2993 C 10.1657 116.4321 9.1514 116.6122 8.2243 116.6122 ZM 15.8956 113.8134 C 14.033 113.8134 12.6684 115.076 12.6684 116.8104 C 12.6684 118.6996 13.8844 119.8505 15.8781 119.8505 C 17.7324 119.8505 19.1402 118.5537 19.1402 116.8446 C 19.1402 114.9048 17.9764 113.8134 15.8956 113.8134 ZM 15.8873 119.584 C 15.3628 119.584 14.8639 119.4218 14.4705 119.1283 C 13.8056 118.6222 13.5258 117.9432 13.5258 116.8013 C 13.5258 115.1966 14.497 114.0872 15.8956 114.0872 C 16.4559 114.0872 16.9805 114.2601 17.3821 114.577 C 18.0204 115.076 18.2744 115.7459 18.2744 116.8698 C 18.2744 118.4763 17.3033 119.584 15.8873 119.584 ZM 24.2602 113.9341 C 24.2253 114.0547 24.2253 114.1052 24.2253 114.1988 C 24.2253 114.2943 24.2253 114.3375 24.2602 114.4492 C 23.6044 114.406 22.9579 114.3375 22.3013 114.3375 C 22.1005 114.3375 22.0298 114.3465 21.8464 114.3537 L 21.8382 114.4312 C 21.8299 115.0849 21.8207 115.7279 21.8207 116.3817 L 21.8299 116.4663 C 21.8997 116.4754 21.917 116.4754 21.9601 116.4754 C 22.6608 116.4754 23.3596 116.3979 24.0593 116.3979 C 24.0244 116.5186 24.0162 116.578 24.0162 116.6807 C 24.0162 116.7671 24.0244 116.8104 24.0593 116.904 C 23.587 116.8608 22.9231 116.8355 22.3013 116.8355 C 22.1527 116.8355 21.995 116.8446 21.8464 116.8446 C 21.8464 117.1633 21.8464 117.4803 21.8382 117.7973 C 21.8382 118.4421 21.8813 119.0778 21.8813 119.7208 C 21.7327 119.6956 21.6813 119.6866 21.5328 119.6866 C 21.3833 119.6866 21.2696 119.6956 21.0504 119.7208 C 21.0596 119.6704 21.0688 119.6344 21.0688 119.6344 C 21.0862 119.4903 21.1036 119.1715 21.1128 118.6816 L 21.1293 117.7289 C 21.1293 117.6262 21.1384 117.4984 21.1384 117.3507 C 21.1384 117.2048 21.1293 117.0247 21.1293 116.8283 L 21.121 115.8918 C 21.121 114.9805 21.1036 114.3285 21.0688 113.9341 C 21.3219 113.9593 21.3915 113.9683 21.8033 113.9683 C 22.626 113.9683 23.4384 113.9341 24.2602 113.9341 ZM 26.6931 116.0899 L 26.6931 116.8013 L 26.7014 117.7541 C 26.7014 118.6654 26.7198 119.2742 26.7546 119.7208 C 26.5005 119.6956 26.4391 119.6866 26.3254 119.6866 C 26.186 119.6866 26.1163 119.6956 25.9146 119.7208 C 25.976 119.0508 25.9843 118.3737 25.9843 117.7036 L 25.9843 116.8104 L 25.976 115.8576 L 25.9586 114.8616 C 25.9494 114.2511 25.9412 114.1988 25.9146 113.9341 C 26.0723 113.9593 26.1246 113.9683 26.3437 113.9683 C 26.562 113.9683 26.606 113.9593 26.7546 113.9341 C 26.7198 114.3375 26.6931 115.4019 26.6931 116.0899 ZM 32.1763 117.9342 C 32.1763 119.0256 31.2941 119.8325 30.0955 119.8325 C 29.5361 119.8325 29.0289 119.6704 28.6346 119.3606 C 28.7052 119.1121 28.7923 118.8636 28.8107 118.597 L 28.8969 118.597 C 29.1334 119.1031 29.7021 119.4543 30.2963 119.4543 C 30.9878 119.4543 31.5032 118.9319 31.5032 118.244 C 31.5032 116.7239 28.7841 117.2912 28.7841 115.4019 C 28.7841 114.4654 29.5443 113.8224 30.6466 113.8224 C 31.162 113.8224 31.5032 113.9251 31.9406 114.2258 C 31.8095 114.5176 31.749 114.714 31.705 114.9301 L 31.6169 114.9301 C 31.4592 114.4744 31.0226 114.1664 30.5329 114.1664 C 29.9295 114.1664 29.4655 114.6023 29.4655 115.1696 C 29.4655 116.6734 32.1763 116.1926 32.1763 117.9342 ZM 37.3128 117.9342 C 37.3128 119.0256 36.4296 119.8325 35.232 119.8325 C 34.6716 119.8325 34.1645 119.6704 33.7711 119.3606 C 33.8408 119.1121 33.9279 118.8636 33.9462 118.597 L 34.0333 118.597 C 34.2691 119.1031 34.8376 119.4543 35.4319 119.4543 C 36.1234 119.4543 36.6387 118.9319 36.6387 118.244 C 36.6387 116.7239 33.9197 117.2912 33.9197 115.4019 C 33.9197 114.4654 34.6799 113.8224 35.7822 113.8224 C 36.2976 113.8224 36.6387 113.9251 37.0771 114.2258 C 36.9451 114.5176 36.8845 114.714 36.8405 114.9301 L 36.7525 114.9301 C 36.5956 114.4744 36.1582 114.1664 35.6685 114.1664 C 35.0651 114.1664 34.601 114.6023 34.601 115.1696 C 34.601 116.6734 37.3128 116.1926 37.3128 117.9342 ZM 39.9732 116.0899 L 39.9732 116.8013 L 39.9824 117.7541 C 39.9824 118.6654 39.9998 119.2742 40.0347 119.7208 C 39.7806 119.6956 39.7201 119.6866 39.6064 119.6866 C 39.467 119.6866 39.3964 119.6956 39.1956 119.7208 C 39.2561 119.0508 39.2653 118.3737 39.2653 117.7036 L 39.2653 116.8104 L 39.2561 115.8576 L 39.2396 114.8616 C 39.2304 114.2511 39.2213 114.1988 39.1956 113.9341 C 39.3533 113.9593 39.4046 113.9683 39.6238 113.9683 C 39.843 113.9683 39.8861 113.9593 40.0347 113.9341 C 39.9998 114.3375 39.9732 115.4019 39.9732 116.0899 ZM 45.1693 113.8134 C 43.3058 113.8134 41.9422 115.076 41.9422 116.8104 C 41.9422 118.6996 43.1573 119.8505 45.151 119.8505 C 47.0053 119.8505 48.413 118.5537 48.413 116.8446 C 48.413 114.9048 47.2502 113.8134 45.1693 113.8134 ZM 45.1602 119.584 C 44.6356 119.584 44.1367 119.4218 43.7433 119.1283 C 43.0784 118.6222 42.7996 117.9432 42.7996 116.8013 C 42.7996 115.1966 43.7699 114.0872 45.1693 114.0872 C 45.7287 114.0872 46.2533 114.2601 46.655 114.577 C 47.2933 115.076 47.5473 115.7459 47.5473 116.8698 C 47.5473 118.4763 46.5761 119.584 45.1602 119.584 ZM 55.3433 117.7973 L 55.3433 118.7681 C 55.3433 119.3102 55.3433 119.6272 55.3524 119.7046 C 55.3524 119.7389 55.3524 119.7821 55.3616 119.8325 L 55.2296 119.8325 C 55.0902 119.6434 54.9242 119.4723 54.7664 119.3012 L 54.1199 118.579 C 53.6999 118.1251 52.9644 117.3345 52.5187 116.8698 C 51.9859 116.3384 51.4962 115.7549 50.945 115.247 L 50.8845 115.1876 L 50.8754 115.2903 C 50.8662 115.8396 50.8662 116.3889 50.857 116.94 C 50.857 117.8658 50.857 118.7933 50.9359 119.7208 C 50.8139 119.6956 50.7708 119.6866 50.6305 119.6866 C 50.4727 119.6866 50.4379 119.6956 50.3242 119.7208 C 50.3673 119.429 50.3673 119.3696 50.403 118.6996 L 50.4379 117.7469 L 50.4645 116.7419 L 50.481 115.7873 L 50.4902 114.9463 C 50.4902 114.5699 50.481 114.1916 50.481 113.8134 L 50.6223 113.8134 C 51.1633 114.3969 51.6971 114.9733 52.2482 115.5478 L 53.1057 116.4411 C 53.7173 117.0589 54.2767 117.7379 54.9325 118.3214 C 54.9325 117.7108 54.9508 117.1111 54.9508 116.5005 L 54.9508 115.564 C 54.9508 114.7932 54.9325 114.3969 54.8976 113.9341 C 55.0287 113.9593 55.0645 113.9683 55.1948 113.9683 C 55.3616 113.9683 55.3874 113.9593 55.501 113.9341 C 55.4139 114.6023 55.3433 116.3384 55.3433 117.7973 ZM 62.1076 118.7519 L 61.6784 117.7901 L 61.2502 116.8013 L 60.8659 115.917 C 60.5688 115.2308 60.2881 114.5338 59.9819 113.8476 L 59.8076 113.8476 C 59.3967 114.8616 58.863 115.926 58.399 116.922 C 57.9881 117.8405 57.5773 118.7591 57.1224 119.6614 L 57.1224 119.7208 C 57.2545 119.6956 57.315 119.6866 57.4113 119.6866 C 57.5333 119.6866 57.5773 119.6956 57.7167 119.7208 C 57.9185 118.9482 58.2422 118.1936 58.5659 117.4623 C 59.1078 117.4623 59.6498 117.4551 60.1928 117.4551 C 60.4019 117.4623 60.5412 117.4623 60.6119 117.4623 C 60.6733 117.4623 60.6825 117.4623 60.7778 117.4551 C 61.0934 118.2007 61.4161 118.9572 61.6784 119.7208 C 61.8362 119.6956 61.8802 119.6866 62.0984 119.6866 C 62.3433 119.6866 62.3782 119.6956 62.5276 119.7208 L 62.5276 119.6776 L 62.5001 119.6272 L 62.1076 118.7519 ZM 60.5688 117.1021 C 60.5064 117.1111 60.367 117.1111 60.157 117.1111 C 59.8424 117.1201 59.527 117.1201 59.2133 117.1201 L 58.7841 117.1111 L 58.7319 117.1021 L 59.6847 114.9553 L 60.6293 117.1021 L 60.5688 117.1021 ZM 67.3221 119.1985 C 67.2964 119.3174 67.2872 119.3696 67.2872 119.4633 C 67.2872 119.6019 67.2872 119.6272 67.3221 119.7208 C 67.2616 119.7136 67.2175 119.7136 67.2083 119.7136 C 66.6755 119.6866 66.1509 119.6956 65.6172 119.6866 L 64.7167 119.7046 C 64.5241 119.7136 64.3407 119.7208 64.1481 119.7208 C 64.1747 119.411 64.1838 119.3426 64.1838 118.7339 L 64.1921 117.7811 L 64.1921 116.8446 L 64.1921 115.8738 C 64.1921 115.1966 64.1747 114.3898 64.1481 113.9341 C 64.2701 113.9593 64.3929 113.9683 64.5241 113.9683 C 64.813 113.9683 64.8478 113.9593 64.9789 113.9341 C 64.9084 114.7229 64.9084 115.5226 64.9084 116.3205 L 64.9001 117.3254 L 64.9084 118.3376 C 64.9084 118.8275 64.9084 119.1121 64.9175 119.1895 C 64.9175 119.2057 64.9175 119.249 64.9267 119.3174 C 65.0496 119.3354 65.0844 119.3354 65.2495 119.3354 C 65.3981 119.3354 65.5475 119.3354 65.6961 119.3264 C 66.2381 119.3012 66.7892 119.3174 67.3221 119.1985 ZM 75.528 113.9341 C 75.0034 113.9431 74.4871 113.9683 73.9626 113.9683 C 73.7434 113.9683 73.5948 113.9593 73.3243 113.9341 C 73.3417 114.242 73.3509 114.3375 73.3509 114.8688 L 73.3674 115.8828 C 73.3674 116.8536 73.3417 117.8225 73.3417 118.7933 C 73.3417 119.4039 73.3417 119.4471 73.2895 119.7208 C 73.4728 119.7046 73.648 119.6866 73.8315 119.6866 C 74.2514 119.7046 74.6797 119.7208 75.0988 119.7208 C 76.4377 119.7208 76.9715 119.584 77.6097 119.0869 C 78.3085 118.5537 78.7377 117.6352 78.7377 116.6897 C 78.7377 115.7621 78.4837 115.1011 77.9234 114.5861 C 77.2338 113.9503 76.4377 113.9341 75.528 113.9341 ZM 76.2195 119.2831 C 75.7646 119.3786 75.2657 119.4039 74.8017 119.4039 C 74.4348 119.4039 74.3386 119.3948 74.0763 119.3354 C 74.024 118.7843 74.0414 118.2278 74.0332 117.6695 L 74.0414 116.8104 L 74.0414 115.9602 C 74.0497 115.3839 74.0763 114.5951 74.1029 114.3105 C 74.5137 114.2943 74.9154 114.2601 75.3262 114.2601 C 76.3057 114.2601 76.8046 114.406 77.2338 114.8004 C 77.6703 115.2038 77.8977 115.8576 77.8977 116.7167 C 77.8977 117.7721 77.4171 119.0689 76.2195 119.2831 ZM 83.6129 113.8134 C 81.7503 113.8134 80.3866 115.076 80.3866 116.8104 C 80.3866 118.6996 81.6017 119.8505 83.5945 119.8505 C 85.4489 119.8505 86.8575 118.5537 86.8575 116.8446 C 86.8575 114.9048 85.6946 113.8134 83.6129 113.8134 ZM 83.6037 119.584 C 83.0791 119.584 82.5812 119.4218 82.1877 119.1283 C 81.5229 118.6222 81.2432 117.9432 81.2432 116.8013 C 81.2432 115.1966 82.2134 114.0872 83.6129 114.0872 C 84.1723 114.0872 84.6968 114.2601 85.0985 114.577 C 85.7387 115.076 85.9918 115.7459 85.9918 116.8698 C 85.9918 118.4763 85.0215 119.584 83.6037 119.584 ZM 55.6936 109.4153 C 55.668 109.5359 55.668 109.5774 55.668 109.6818 C 55.668 109.7682 55.6762 109.8097 55.6936 109.9214 C 55.2131 109.9214 54.7399 109.8961 54.2593 109.8871 L 53.3496 109.9052 C 52.8599 109.9052 52.8085 109.9124 52.5545 109.9214 C 52.5976 109.5953 52.5976 109.2784 52.6159 108.9506 L 52.6416 107.9979 L 52.6416 107.0109 L 52.6508 106.0581 C 52.6508 105.1558 52.6242 104.4948 52.5894 104.1346 C 53.0442 104.1346 53.5073 104.1688 53.9622 104.1688 C 54.5216 104.1688 55.0902 104.1346 55.6496 104.1346 C 55.624 104.2625 55.624 104.3057 55.624 104.3832 C 55.624 104.4426 55.624 104.4948 55.6496 104.6317 C 55.4222 104.5974 55.3524 104.5974 54.9673 104.5812 C 54.4345 104.5542 53.9099 104.5453 53.3762 104.5453 C 53.3762 105.0621 53.3331 105.5773 53.3331 106.0923 C 53.3331 106.4093 53.3331 106.4688 53.3496 106.6759 C 54.0503 106.6759 54.7491 106.6759 55.4488 106.6074 C 55.4222 106.7191 55.4139 106.7623 55.4139 106.9514 C 55.4139 107.0109 55.4139 107.0361 55.4222 107.1135 C 55.0379 107.0703 54.4611 107.0451 53.9099 107.0451 C 53.7173 107.0451 53.5339 107.0541 53.3413 107.0541 L 53.3496 107.1388 C 53.3413 107.6971 53.3331 108.2644 53.3331 108.8227 C 53.3331 109.055 53.3496 109.2784 53.3496 109.5089 C 53.4981 109.5179 53.5605 109.5179 53.6651 109.5179 C 54.3639 109.5179 55.3433 109.4657 55.6936 109.4153 ZM 60.035 108.4445 C 60.035 106.9244 57.315 107.4918 57.315 105.6024 C 57.315 104.6659 58.0761 104.0229 59.1776 104.0229 C 59.6939 104.0229 60.035 104.1256 60.4716 104.4264 C 60.3413 104.7182 60.279 104.9162 60.2358 105.1306 L 60.1487 105.1306 C 59.991 104.6749 59.5536 104.3651 59.0638 104.3651 C 58.4604 104.3651 57.9973 104.8046 57.9973 105.3701 C 57.9973 106.874 60.7082 106.3931 60.7082 108.1365 C 60.7082 109.2262 59.8241 110.033 58.6264 110.033 C 58.067 110.033 57.5599 109.8709 57.1664 109.5612 C 57.2361 109.3126 57.3242 109.0623 57.3407 108.7975 L 57.4287 108.7975 C 57.6653 109.3036 58.2339 109.6566 58.8282 109.6566 C 59.5187 109.6566 60.035 109.1307 60.035 108.4445 ZM 63.2118 107.0703 C 63.2118 108.6768 64.1123 109.707 65.5118 109.707 C 66.2197 109.707 66.8232 109.4747 67.4092 108.9938 L 67.4523 109.019 L 67.3304 109.5269 C 66.8489 109.8529 66.1674 110.042 65.4678 110.042 C 63.518 110.042 62.3286 108.9182 62.3286 107.0793 C 62.3286 105.19 63.6052 104.0301 65.6695 104.0301 C 66.3243 104.0301 66.9809 104.1598 67.4615 104.3832 C 67.3826 104.5885 67.3129 104.855 67.2872 105.0351 L 67.2249 105.0532 C 66.8057 104.6245 66.2023 104.3651 65.6512 104.3651 C 64.1215 104.3651 63.2118 105.3629 63.2118 107.0703 ZM 75.3006 107.0451 C 75.3006 105.1036 74.1377 104.0139 72.056 104.0139 C 70.1934 104.0139 68.8297 105.2765 68.8297 107.0109 C 68.8297 108.9002 70.0449 110.0511 72.0385 110.0511 C 73.892 110.0511 75.3006 108.7543 75.3006 107.0451 ZM 72.0468 109.7845 C 71.5222 109.7845 71.0243 109.6206 70.6309 109.3288 C 69.966 108.8227 69.6862 108.1437 69.6862 107.0018 C 69.6862 105.3953 70.6566 104.2895 72.056 104.2895 C 72.6154 104.2895 73.14 104.4606 73.5426 104.7776 C 74.1808 105.2765 74.4348 105.9464 74.4348 107.0703 C 74.4348 108.6768 73.4637 109.7845 72.0468 109.7845 ZM 80.3857 109.3973 C 80.3591 109.5179 80.3509 109.5702 80.3509 109.6638 C 80.3509 109.8007 80.3509 109.8277 80.3857 109.9214 C 80.3243 109.9124 80.2803 109.9124 80.272 109.9124 C 79.7392 109.8871 79.2146 109.8961 78.6809 109.8871 L 77.7803 109.9052 C 77.5877 109.9124 77.4043 109.9214 77.2117 109.9214 C 77.2374 109.6134 77.2466 109.5449 77.2466 108.9344 L 77.2558 107.9817 L 77.2558 107.0451 L 77.2558 106.0743 C 77.2558 105.3953 77.2374 104.5885 77.2117 104.1346 C 77.3337 104.1598 77.4557 104.1688 77.5877 104.1688 C 77.8757 104.1688 77.9106 104.1598 78.0426 104.1346 C 77.9729 104.9235 77.9729 105.7231 77.9729 106.521 L 77.9637 107.5259 L 77.9729 108.5399 C 77.9729 109.0298 77.9729 109.3126 77.9811 109.39 C 77.9811 109.4063 77.9811 109.4495 77.9894 109.5179 C 78.1123 109.5359 78.1472 109.5359 78.3132 109.5359 C 78.4626 109.5359 78.6112 109.5359 78.7597 109.5269 C 79.3008 109.5017 79.8529 109.5179 80.3857 109.3973 ZM 86.7272 108.9506 L 86.2981 107.9888 L 85.8707 107.0018 L 85.4856 106.1176 C 85.1884 105.4314 84.9078 104.7361 84.6033 104.0482 L 84.4272 104.0482 C 84.0164 105.0621 83.4827 106.1265 83.0186 107.1226 C 82.6087 108.0411 82.1979 108.9596 81.743 109.8619 L 81.743 109.9214 C 81.8741 109.8961 81.9356 109.8871 82.0319 109.8871 C 82.1538 109.8871 82.1979 109.8961 82.3382 109.9214 C 82.5381 109.1487 82.8627 108.3923 83.1855 107.6629 C 83.7284 107.6629 84.2695 107.6538 84.8124 107.6538 C 85.0215 107.6629 85.1628 107.6629 85.2325 107.6629 C 85.293 107.6629 85.3021 107.6629 85.3994 107.6538 C 85.713 108.4031 86.0376 109.1577 86.2981 109.9214 C 86.4558 109.8961 86.4998 109.8871 86.7181 109.8871 C 86.9638 109.8871 86.9987 109.8961 87.1473 109.9214 L 87.1473 109.8799 L 87.1216 109.8277 L 86.7272 108.9506 ZM 85.1884 107.3026 C 85.1279 107.3117 84.9867 107.3117 84.7776 107.3117 C 84.4621 107.3188 84.1485 107.3188 83.833 107.3188 L 83.4038 107.3117 L 83.3524 107.3026 L 84.3062 105.1558 L 85.249 107.3026 L 85.1884 107.3026 ZM 98.983 119.9261 L 94.4893 119.9261 L 94.4893 104.0932 L 98.983 104.0932 L 98.983 119.9261 ZM 113.7753 104.0932 L 118.0012 104.0932 L 118.0012 119.9261 L 113.7753 119.9261 L 108.3407 111.2325 L 108.3407 119.9261 L 104.1241 119.9261 L 104.1241 104.0932 L 108.3114 104.0932 L 113.7753 112.8517 L 113.7753 104.0932 ZM 127.3975 119.9261 L 122.8946 119.9261 L 122.8946 104.0932 L 133.9802 104.0932 L 133.9802 107.4954 L 127.3975 107.4954 L 127.3975 110.2599 L 133.0209 110.2599 L 133.0209 113.4568 L 127.3975 113.4568 L 127.3975 119.9261 ZM 145.2638 104.0932 L 140.374 104.0932 L 134.9193 119.9261 L 139.5028 119.9261 L 140.2052 117.311 L 145.3134 117.311 L 146.025 119.9261 L 150.7167 119.9261 L 145.2638 104.0932 ZM 141.1755 113.889 L 142.7693 108.1978 L 144.3724 113.889 L 141.1755 113.889 ZM 163.7263 119.9261 L 158.2917 111.2325 L 158.2917 119.9261 L 154.0768 119.9261 L 154.0768 104.0932 L 158.2623 104.0932 L 163.7263 112.8517 L 163.7263 104.0932 L 167.9539 104.0932 L 167.9539 119.9261 L 163.7263 119.9261 ZM 176.38 119.9261 L 176.38 108.0033 L 171.8075 108.0033 L 171.8075 104.0932 L 185.437 104.0932 L 185.437 108.0033 L 180.8644 108.0033 L 180.8644 119.9261 L 176.38 119.9261 ZM 201.5847 116.3403 L 201.5847 119.9261 L 189.351 119.9261 L 189.351 104.0932 L 201.3665 104.0932 L 201.3665 107.4738 L 193.8447 107.4738 L 193.8447 109.9898 L 200.8217 109.9898 L 200.8217 113.2191 L 193.8447 113.2191 L 193.8447 116.3403 L 201.5847 116.3403 ZM 99.7074 128.1317 C 99.7955 128.1317 99.8469 128.1227 100.0138 128.0956 C 99.7074 128.7747 99.4195 129.4626 99.104 130.1309 L 98.7189 131.0241 L 98.3263 131.9535 C 98.0549 132.5875 97.7394 133.2232 97.5487 133.8842 C 97.3726 133.859 97.3213 133.85 97.2589 133.85 C 97.1635 133.85 97.1103 133.859 96.9709 133.8842 C 96.8737 133.5925 96.7343 133.3007 96.6298 133.0089 C 96.3235 132.2093 96.2281 131.9949 95.8062 130.999 L 95.4137 130.0894 C 95.1349 129.4284 94.8708 128.7585 94.5737 128.0956 C 94.7498 128.1227 94.8543 128.1317 95.0983 128.1317 C 95.2909 128.1317 95.3184 128.1227 95.4578 128.0956 C 95.4761 128.1479 95.4835 128.1749 95.4926 128.1821 C 95.5183 128.2505 95.5971 128.4739 95.7292 128.8611 C 96.0263 129.7022 96.3675 130.5361 96.716 131.352 L 97.0663 132.2093 C 97.18 132.4686 97.2938 132.7244 97.3983 132.9909 L 97.4606 132.9909 C 97.7394 132.3822 97.9852 131.7626 98.2292 131.1449 C 98.5538 130.329 99.2269 128.8773 99.3755 128.0956 C 99.4892 128.1047 99.5938 128.1317 99.7074 128.1317 ZM 103.2272 130.2515 L 103.2272 130.9647 L 103.2345 131.9175 C 103.2345 132.8288 103.2529 133.4376 103.2877 133.8842 C 103.0346 133.859 102.9723 133.85 102.8585 133.85 C 102.7191 133.85 102.6494 133.859 102.4476 133.8842 C 102.51 133.2143 102.5192 132.537 102.5192 131.867 L 102.5192 130.9737 L 102.51 130.0192 L 102.4917 129.025 C 102.4825 128.4144 102.4752 128.3622 102.4476 128.0956 C 102.6054 128.1227 102.6586 128.1317 102.8768 128.1317 C 103.0951 128.1317 103.1391 128.1227 103.2877 128.0956 C 103.2529 128.5009 103.2272 129.5653 103.2272 130.2515 ZM 109.5843 133.3601 C 109.5586 133.4808 109.5494 133.5331 109.5494 133.6267 C 109.5494 133.7654 109.5494 133.7906 109.5843 133.8842 C 109.5219 133.877 109.4797 133.877 109.4706 133.877 C 108.9369 133.85 108.4123 133.859 107.8785 133.85 L 106.978 133.868 C 106.7854 133.877 106.602 133.8842 106.4094 133.8842 C 106.4369 133.5744 106.4443 133.506 106.4443 132.8972 L 106.4534 131.9427 L 106.4534 131.0079 L 106.4534 130.0372 C 106.4534 129.36 106.4369 128.5514 106.4094 128.0956 C 106.5323 128.1227 106.6552 128.1317 106.7854 128.1317 C 107.0752 128.1317 107.1082 128.1227 107.2402 128.0956 C 107.1706 128.8864 107.1706 129.686 107.1706 130.4838 L 107.1614 131.4888 L 107.1706 132.501 C 107.1706 132.9909 107.1706 133.2755 107.1797 133.3511 C 107.1797 133.3691 107.1797 133.4123 107.1889 133.4808 C 107.31 133.4988 107.3448 133.4988 107.5117 133.4988 C 107.6603 133.4988 107.8089 133.4988 107.9574 133.4898 C 108.5003 133.4628 109.0505 133.4808 109.5843 133.3601 ZM 116.7998 132.9153 L 116.3706 131.9535 L 115.9433 130.9647 L 115.5581 130.0804 C 115.261 129.3924 114.9803 128.6972 114.6759 128.011 L 114.4998 128.011 C 114.0889 129.025 113.5552 130.0894 113.0912 131.0854 C 112.6803 132.004 112.2695 132.9225 111.8146 133.8248 L 111.8146 133.8842 C 111.9467 133.859 112.0072 133.85 112.1044 133.85 C 112.2254 133.85 112.2695 133.859 112.4089 133.8842 C 112.6106 133.1116 112.9334 132.3569 113.2581 131.6257 C 113.801 131.6257 114.342 131.6185 114.885 131.6185 C 115.0941 131.6257 115.2335 131.6257 115.305 131.6257 C 115.3655 131.6257 115.3747 131.6257 115.4701 131.6185 C 115.7855 132.3641 116.1083 133.1206 116.3706 133.8842 C 116.5283 133.859 116.5724 133.85 116.7906 133.85 C 117.0364 133.85 117.0713 133.859 117.2198 133.8842 L 117.2198 133.841 L 117.1923 133.7906 L 116.7998 132.9153 ZM 115.261 131.2655 C 115.2004 131.2745 115.0592 131.2745 114.8501 131.2745 C 114.5346 131.2835 114.221 131.2835 113.9055 131.2835 L 113.4763 131.2745 L 113.425 131.2655 L 114.3769 129.1187 L 115.3215 131.2655 L 115.261 131.2655 ZM 128.7401 131.9607 L 128.7401 132.9315 C 128.7401 133.4718 128.7401 133.7906 128.7474 133.868 C 128.7474 133.9022 128.7474 133.9455 128.7566 133.9959 L 128.6263 133.9959 C 128.4869 133.8068 128.32 133.6357 128.1623 133.4628 L 127.5148 132.7423 C 127.0966 132.2867 126.3611 131.4978 125.9155 131.0332 C 125.3817 130.5019 124.892 129.9183 124.3418 129.4105 L 124.2794 129.351 L 124.2721 129.4537 C 124.2629 130.003 124.2629 130.5523 124.2537 131.1016 C 124.2537 132.0291 124.2537 132.9567 124.3326 133.8842 C 124.2097 133.859 124.1657 133.85 124.0263 133.85 C 123.8686 133.85 123.8337 133.859 123.72 133.8842 C 123.764 133.5925 123.764 133.5331 123.7989 132.863 L 123.8337 131.9102 L 123.8594 130.9053 L 123.8777 129.9508 L 123.8869 129.1096 C 123.8869 128.7332 123.8777 128.355 123.8777 127.9768 L 124.0171 127.9768 C 124.56 128.5603 125.0938 129.1367 125.644 129.7112 L 126.5006 130.6046 C 127.1132 131.2223 127.6726 131.9013 128.3292 132.4848 C 128.3292 131.8743 128.3457 131.2745 128.3457 130.664 L 128.3457 129.7274 C 128.3457 128.9566 128.3292 128.5603 128.2944 128.0956 C 128.4246 128.1227 128.4594 128.1317 128.5915 128.1317 C 128.7566 128.1317 128.7841 128.1227 128.8978 128.0956 C 128.8097 128.7657 128.7401 130.5019 128.7401 131.9607 ZM 134.9083 127.9768 C 133.0448 127.9768 131.682 129.2393 131.682 130.9737 C 131.682 132.863 132.8962 134.0139 134.8899 134.0139 C 136.7442 134.0139 138.1528 132.7172 138.1528 131.0079 C 138.1528 129.0664 136.99 127.9768 134.9083 127.9768 ZM 134.8991 133.7473 C 134.3745 133.7473 133.8756 133.5834 133.4832 133.2917 C 132.8174 132.7856 132.5385 132.1066 132.5385 130.9647 C 132.5385 129.36 133.5088 128.2505 134.9083 128.2505 C 135.4677 128.2505 135.9922 128.4235 136.3939 128.7405 C 137.034 129.2393 137.2871 129.9075 137.2871 131.0332 C 137.2871 132.6397 136.315 133.7473 134.8991 133.7473 ZM 145.1959 128.1317 C 145.284 128.1317 145.3354 128.1227 145.5022 128.0956 C 145.1959 128.7747 144.9062 129.4626 144.5925 130.1309 L 144.2074 131.0241 L 143.8148 131.9535 C 143.5434 132.5875 143.2279 133.2232 143.0353 133.8842 C 142.8611 133.859 142.8079 133.85 142.7473 133.85 C 142.6502 133.85 142.5988 133.859 142.4594 133.8842 C 142.3622 133.5925 142.2228 133.3007 142.1183 133.0089 C 141.8119 132.2093 141.7148 131.9949 141.2966 130.999 L 140.9022 130.0894 C 140.6216 129.4284 140.3593 128.7585 140.0622 128.0956 C 140.2364 128.1227 140.3428 128.1317 140.5868 128.1317 C 140.7794 128.1317 140.805 128.1227 140.9462 128.0956 C 140.9627 128.1479 140.9719 128.1749 140.9811 128.1821 C 141.0068 128.2505 141.0856 128.4739 141.2159 128.8611 C 141.5148 129.7022 141.856 130.5361 142.2045 131.352 L 142.5547 132.2093 C 142.6685 132.4686 142.7822 132.7244 142.8868 132.9909 L 142.9491 132.9909 C 143.2279 132.3822 143.4737 131.7626 143.7177 131.1449 C 144.0404 130.329 144.7154 128.8773 144.864 128.0956 C 144.9777 128.1047 145.0822 128.1317 145.1959 128.1317 ZM 151.775 132.9153 L 151.3476 131.9535 L 150.9184 130.9647 L 150.5333 130.0804 C 150.2361 129.3924 149.9574 128.6972 149.6492 128.011 L 149.475 128.011 C 149.0641 129.025 148.5304 130.0894 148.0682 131.0854 C 147.6574 132.004 147.2447 132.9225 146.7916 133.8248 L 146.7916 133.8842 C 146.9219 133.859 146.9824 133.85 147.0796 133.85 C 147.2025 133.85 147.2447 133.859 147.3859 133.8842 C 147.5858 133.1116 147.9105 132.3569 148.2332 131.6257 C 148.7762 131.6257 149.3172 131.6185 149.8602 131.6185 C 150.0692 131.6257 150.2105 131.6257 150.2802 131.6257 C 150.3407 131.6257 150.3499 131.6257 150.4452 131.6185 C 150.7607 132.3641 151.0835 133.1206 151.3476 133.8842 C 151.5036 133.859 151.5476 133.85 151.7658 133.85 C 152.0116 133.85 152.0464 133.859 152.195 133.8842 L 152.195 133.841 L 152.1693 133.7906 L 151.775 132.9153 ZM 150.2361 131.2655 C 150.1738 131.2745 150.0344 131.2745 149.8253 131.2745 C 149.5098 131.2835 149.1944 131.2835 148.8807 131.2835 L 148.4515 131.2745 L 148.4002 131.2655 L 149.3521 129.1187 L 150.2967 131.2655 L 150.2361 131.2655 ZM 160.9347 128.0956 C 160.4101 128.1047 159.8947 128.1317 159.3683 128.1317 C 159.1501 128.1317 159.0015 128.1227 158.73 128.0956 C 158.7484 128.4055 158.7576 128.5009 158.7576 129.0322 L 158.7741 130.0462 C 158.7741 131.017 158.7484 131.9859 158.7484 132.9567 C 158.7484 133.5672 158.7484 133.6105 158.6952 133.8842 C 158.8786 133.868 159.0547 133.85 159.2381 133.85 C 159.6581 133.868 160.0854 133.8842 160.5055 133.8842 C 161.8426 133.8842 162.3781 133.7473 163.0164 133.2484 C 163.7152 132.7172 164.1426 131.7986 164.1426 130.8531 C 164.1426 129.9255 163.8895 129.2646 163.3301 128.7494 C 162.6386 128.1137 161.8426 128.0956 160.9347 128.0956 ZM 161.6261 133.4466 C 161.1713 133.542 160.6724 133.5672 160.2084 133.5672 C 159.8415 133.5672 159.7443 133.5582 159.4821 133.4988 C 159.4307 132.9477 159.4472 132.3893 159.4398 131.8311 L 159.4472 130.9737 L 159.4472 130.1237 C 159.4564 129.5473 159.4821 128.7585 159.5096 128.4739 C 159.9204 128.4577 160.3221 128.4235 160.7329 128.4235 C 161.7124 128.4235 162.2113 128.5693 162.6386 128.9638 C 163.077 129.3672 163.3044 130.0192 163.3044 130.8783 C 163.3044 131.9355 162.822 133.2322 161.6261 133.4466 ZM 170.0687 133.3781 C 170.0412 133.4988 170.0412 133.542 170.0412 133.6447 C 170.0412 133.7293 170.0503 133.7726 170.0687 133.8842 C 169.5863 133.8842 169.1149 133.859 168.6344 133.85 L 167.7247 133.868 C 167.235 133.868 167.1818 133.877 166.9286 133.8842 C 166.9727 133.5582 166.9727 133.2394 166.9892 132.9153 L 167.0167 131.9607 L 167.0167 130.9737 L 167.0259 130.0192 C 167.0259 129.1187 166.9984 128.4577 166.9635 128.0956 C 167.4184 128.0956 167.8824 128.1317 168.3373 128.1317 C 168.8967 128.1317 169.4653 128.0956 170.0247 128.0956 C 169.9972 128.2253 169.9972 128.2686 169.9972 128.346 C 169.9972 128.4055 169.9972 128.4577 170.0247 128.5946 C 169.7972 128.5603 169.7276 128.5603 169.3424 128.5423 C 168.8087 128.5171 168.2841 128.5099 167.7503 128.5099 C 167.7503 129.025 167.7063 129.5401 167.7063 130.0552 C 167.7063 130.3722 167.7063 130.4334 167.7247 130.6387 C 168.4235 130.6387 169.1241 130.6387 169.8229 130.5703 C 169.7972 130.682 169.7881 130.7252 169.7881 130.9125 C 169.7881 130.9737 169.7881 130.999 169.7972 131.0764 C 169.412 131.0332 168.8343 131.0079 168.2841 131.0079 C 168.0915 131.0079 167.9081 131.017 167.7155 131.017 L 167.7247 131.1016 C 167.7155 131.6599 167.7063 132.2273 167.7063 132.7856 C 167.7063 133.0161 167.7247 133.2394 167.7247 133.4718 C 167.8733 133.4808 167.9338 133.4808 168.0383 133.4808 C 168.739 133.4808 169.7184 133.4304 170.0687 133.3781 ZM 182.0786 131.2475 C 181.9998 131.8581 181.9998 132.4848 181.9998 133.1026 C 181.9998 133.4034 181.9998 133.4376 182.0346 133.6267 C 181.2551 133.877 180.4958 134.0049 179.7695 134.0049 C 177.6272 134.0049 176.446 132.9405 176.446 131.0241 C 176.446 129.7976 177.0934 128.7494 178.0985 128.337 C 178.6323 128.1227 179.2541 128.011 179.9437 128.011 C 180.7745 128.011 181.4568 128.1659 182.0695 128.4919 C 181.9814 128.6468 181.8934 128.8953 181.8512 129.1367 L 181.7632 129.1367 C 181.3083 128.6126 180.5563 128.2776 179.8208 128.2776 C 178.2838 128.2776 177.2952 129.333 177.2952 130.9737 C 177.2952 132.6649 178.2654 133.6951 179.8575 133.6951 C 180.3564 133.6951 180.8443 133.5925 181.2734 133.4034 L 181.2827 133.3349 C 181.2991 132.845 181.3083 132.5713 181.3083 132.2705 C 181.3083 131.849 181.2918 131.5663 181.2551 131.2475 C 181.422 131.2835 181.4825 131.2907 181.6494 131.2907 C 181.7797 131.2907 181.8677 131.2835 182.0786 131.2475 ZM 189.4977 132.9153 L 189.0686 131.9535 L 188.6412 130.9647 L 188.256 130.0804 C 187.9589 129.3924 187.6783 128.6972 187.3738 128.011 L 187.1977 128.011 C 186.7869 129.025 186.2531 130.0894 185.7909 131.0854 C 185.3783 132.004 184.9674 132.9225 184.5126 133.8248 L 184.5126 133.8842 C 184.6446 133.859 184.707 133.85 184.8023 133.85 C 184.9252 133.85 184.9674 133.859 185.1086 133.8842 C 185.3085 133.1116 185.6332 132.3569 185.956 131.6257 C 186.4989 131.6257 187.04 131.6185 187.5829 131.6185 C 187.792 131.6257 187.9332 131.6257 188.0029 131.6257 C 188.0634 131.6257 188.0726 131.6257 188.1698 131.6185 C 188.4834 132.3641 188.8081 133.1206 189.0686 133.8842 C 189.2263 133.859 189.2703 133.85 189.4904 133.85 C 189.7343 133.85 189.7692 133.859 189.9178 133.8842 L 189.9178 133.841 L 189.8921 133.7906 L 189.4977 132.9153 ZM 187.9589 131.2655 C 187.8983 131.2745 187.759 131.2745 187.548 131.2745 C 187.2326 131.2835 186.9189 131.2835 186.6035 131.2835 L 186.1743 131.2745 L 186.1229 131.2655 L 187.0767 129.1187 L 188.0194 131.2655 L 187.9589 131.2655 ZM 193.1917 130.2515 L 193.1917 130.9647 L 193.199 131.9175 C 193.199 132.8288 193.2174 133.4376 193.2522 133.8842 C 192.9991 133.859 192.9386 133.85 192.8248 133.85 C 192.6837 133.85 192.6139 133.859 192.414 133.8842 C 192.4745 133.2143 192.4837 132.537 192.4837 131.867 L 192.4837 130.9737 L 192.4745 130.0192 L 192.4562 129.025 C 192.4471 128.4144 192.4397 128.3622 192.414 128.0956 C 192.5699 128.1227 192.6231 128.1317 192.8413 128.1317 C 193.0596 128.1317 193.1036 128.1227 193.2522 128.0956 C 193.2174 128.5009 193.1917 129.5653 193.1917 130.2515 ZM 200.73 132.9153 L 200.3008 131.9535 L 199.8716 130.9647 L 199.4883 130.0804 C 199.1911 129.3924 198.9105 128.6972 198.6042 128.011 L 198.43 128.011 C 198.0191 129.025 197.4854 130.0894 197.0214 131.0854 C 196.6105 132.004 196.1997 132.9225 195.7448 133.8248 L 195.7448 133.8842 C 195.8769 133.859 195.9374 133.85 196.0346 133.85 C 196.1557 133.85 196.1997 133.859 196.3391 133.8842 C 196.5408 133.1116 196.8636 132.3569 197.1883 131.6257 C 197.7294 131.6257 198.2722 131.6185 198.8152 131.6185 C 199.0243 131.6257 199.1636 131.6257 199.2333 131.6257 C 199.2957 131.6257 199.303 131.6257 199.4002 131.6185 C 199.7157 132.3641 200.0385 133.1206 200.3008 133.8842 C 200.4586 133.859 200.5026 133.85 200.7208 133.85 C 200.9648 133.85 201.0014 133.859 201.1482 133.8842 L 201.1482 133.841 L 201.1225 133.7906 L 200.73 132.9153 ZM 199.1911 131.2655 C 199.1288 131.2745 198.9894 131.2745 198.7784 131.2745 C 198.4648 131.2835 198.1494 131.2835 197.8357 131.2835 L 197.4065 131.2745 L 197.3552 131.2655 L 198.3071 129.1187 L 199.2516 131.2655 L 199.1911 131.2655 Z" fill="#1a5070"/>
				<path d="M 200.75 95.9844 C 201.5781 95.3125 202 94.4063 202 93.2813 C 202 92.4688 201.8281 91.7813 201.4844 91.2188 C 201.1406 90.6563 200.6406 90.25 200 90 L 198.8594 89.8438 L 197.9063 89.7344 C 197.1875 89.6406 196.7031 89.5469 196.4219 89.4219 C 196.1406 89.2969 196 89.1406 196 88.9219 C 196 88.6563 196.1563 88.4375 196.4688 88.2656 C 196.7813 88.0938 197.1719 88 197.6719 88 C 198.125 88 198.5781 88.0781 199.0156 88.2031 C 199.4531 88.3281 199.9375 88.5469 200.4844 88.8438 L 202 87.2031 C 201.4844 86.8281 200.8906 86.5313 200.2188 86.3125 C 199.5313 86.1094 198.8438 86 198.1406 86 C 197.5469 86 196.9844 86.0781 196.4844 86.2344 C 195.9688 86.3906 195.5313 86.6094 195.1563 86.8906 C 194.7813 87.1719 194.4844 87.5156 194.2969 87.8906 C 194.0938 88.2813 194 88.7031 194 89.1563 C 194 89.7344 194.2188 90.25 194.6875 90.7031 C 194.8125 91.0156 194.9688 91.2656 195.1875 91.4844 C 195.3906 91.7031 195.6563 91.875 196 92 L 196.875 92.1406 L 197.8281 92.3125 C 199.2656 92.5625 200 92.9844 200 93.6094 C 200 94.5469 199.2656 95 197.8281 95 C 197.25 95 196.7031 94.9375 196.1719 94.7813 C 195.6406 94.625 195.0625 94.4063 194.4375 94.0938 L 193.7344 95.9063 C 194.2969 96.2656 194.9063 96.5313 195.5625 96.7188 C 196.2188 96.9063 196.8438 97 197.4688 97 C 198.1406 97 198.75 96.9219 199.3125 96.7344 C 199.875 96.5625 200.3438 96.3125 200.75 95.9844 ZM 191.3244 94.5625 C 191.6681 93.6875 191.84 92.6563 191.84 91.4375 C 191.84 89.75 191.4181 88.4219 190.5744 87.4531 C 189.7306 86.4844 188.5744 86 187.1212 86 C 186.2619 86 185.4962 86.1719 184.84 86.5156 C 184.1994 86.9531 183.6994 87.5938 183.3556 88.4688 C 183.0119 89.3438 182.84 90.3594 182.84 91.5156 C 182.84 93.1094 183.1837 94.4375 183.8869 95.5 C 184.3244 96.0313 184.8244 96.4063 185.4025 96.6406 C 185.9806 96.8906 186.6994 97 187.5744 97 C 188.0431 97 188.4494 96.9688 188.7931 96.8906 C 189.1369 96.8125 189.4962 96.6875 189.84 96.5 C 190.4962 96.0938 190.9806 95.4375 191.3244 94.5625 ZM 189.84 89.0156 L 189.84 91.5 C 189.84 92.75 189.6369 93.6406 189.2619 94.1875 C 188.8869 94.7344 188.2619 95 187.4025 95 C 186.7619 95 186.2306 95 185.8087 94.9844 C 185.1525 94.5469 184.84 93.3906 184.84 91.5156 C 184.84 90.25 184.965 89.2813 185.215 88.5938 C 185.4025 88.4219 185.6994 88.2813 186.09 88.1719 C 186.465 88.0625 186.9025 88 187.3712 88 C 188.0431 88 188.59 88.1094 189.0119 88.3281 C 189.4181 88.5469 189.6994 88.7656 189.84 89.0156 ZM 178.68 97 L 180.68 97 L 180.68 86 L 178.68 86 L 178.68 90.5469 L 178.68 92.0469 L 178.68 93.6094 C 178.5237 93.1719 178.3206 92.6875 178.055 92.125 C 177.7894 91.5781 177.4925 91.0156 177.1644 90.4531 L 175.1487 86 L 172.68 86 L 172.68 97 L 174.68 97 L 174.68 92.25 L 174.68 92.0156 L 174.68 90.4063 L 174.68 89.0938 C 174.7894 89.4375 175.0081 89.9219 175.3519 90.5781 C 175.6956 91.2344 176.0862 91.9531 176.5394 92.75 L 178.68 97 ZM 169.6919 97 L 171.7075 97 L 168.3325 86 L 166.1606 86 L 162.77 97 L 164.5981 97 L 165.3794 94 L 168.895 94 L 169.6919 97 ZM 168.395 91.7656 L 168.4888 92 L 165.6763 92 L 166.0044 91.25 L 166.395 90.3125 C 166.6294 89.6875 166.8013 89.25 166.9106 88.9844 C 167.02 88.7188 167.0981 88.5469 167.1294 88.4844 C 167.1606 88.4219 167.1763 88.3594 167.1919 88.2969 C 167.2075 88.3594 167.3169 88.6875 167.5356 89.25 C 167.7388 89.8281 167.8481 90.125 167.8794 90.1563 C 167.9263 90.3594 167.9888 90.5781 168.0669 90.7969 L 168.2544 91.3594 C 168.3013 91.5156 168.3481 91.6406 168.395 91.7656 ZM 156.8406 95.2813 C 157.075 94.7344 157.2 94.125 157.2 93.4688 C 157.2 92.4375 156.8875 91.6094 156.2781 90.9688 C 155.6688 90.3281 154.8875 90 153.9344 90 C 153.7781 90 153.6688 90.0156 153.575 90.0156 C 153.4813 90.0313 153.3563 90.0469 153.2 90.0781 L 153.2 88 L 156.075 88 L 156.3875 86 L 151.4344 86 L 151.2 90.4688 L 151.2 92.4531 C 151.6375 92.2969 151.9969 92.1875 152.3094 92.1094 C 152.6219 92.0469 152.9188 92 153.2 92 C 153.7938 92 154.2781 92.1563 154.6531 92.4688 C 155.0125 92.7813 155.2 93.1875 155.2 93.6875 C 155.2 94.375 154.9188 94.9219 154.3719 95.3594 C 153.825 95.7969 153.1219 96 152.2625 96 C 152.0125 96 151.7781 95.9844 151.5438 95.9531 C 151.3094 95.9219 151.0438 95.8594 150.7313 95.7656 L 151.2 97.8438 L 151.7781 97.9844 C 151.9031 97.9844 152.1063 98 152.3719 98 C 153.0594 98 153.7 97.8906 154.2938 97.6719 C 154.8875 97.4531 155.4031 97.125 155.8406 96.7344 C 156.2781 96.3281 156.6063 95.8438 156.8406 95.2813 ZM 147.04 97 L 147.9775 95 L 145.04 95 C 144.6025 95 144.1338 95.0156 143.6181 95.0313 C 143.0869 95.0469 142.7119 95.0625 142.4775 95.0781 C 142.6338 95.0313 142.8525 94.9531 143.1338 94.8438 C 143.415 94.75 143.6494 94.6406 143.8369 94.5469 C 144.1963 94.2344 144.54 93.9063 144.8681 93.5625 C 145.1963 93.2344 145.4931 92.9375 145.7431 92.6563 C 146.1494 92.0156 146.4775 91.3906 146.6963 90.7813 C 146.915 90.1875 147.04 89.6094 147.04 89.0469 C 147.04 88.1406 146.79 87.4063 146.3213 86.8438 C 145.8369 86.2813 145.1963 86 144.3838 86 C 143.6963 86 143.0869 86.1406 142.54 86.4219 C 141.9931 86.7031 141.4619 87.1094 140.9619 87.6719 L 141.9463 89.0469 C 142.3369 88.6875 142.6806 88.4219 142.9931 88.25 C 143.3056 88.0938 143.6025 88 143.8994 88 C 144.2431 88 144.5088 88.1094 144.7275 88.3281 C 144.9306 88.5469 145.04 88.9219 145.04 89.4531 C 145.04 89.875 144.9306 90.3438 144.7431 90.875 C 144.5556 91.4063 144.1963 92.0313 143.6963 92.75 C 143.5088 92.9688 143.29 93.2031 143.0713 93.4531 L 142.3994 94.1875 L 141.6806 94.9375 C 141.4306 95.2031 141.2431 95.3906 141.1494 95.4844 L 141.1494 97 L 147.04 97 Z" fill="#a5ce37"/>
				<g>
					<path d="M 124.7603 29.031 L 114.3547 23.0703 C 112.1877 21.8295 108.6766 19.8165 106.5112 18.5757 L 96.1041 12.6165 C 93.9386 11.3756 90.4261 11.3756 88.2606 12.6165 L 77.8551 18.5757 C 75.6881 19.8165 72.177 21.8295 70.0108 23.0703 L 59.6045 29.031 C 57.4391 30.2718 55.6835 33.2883 55.6835 35.7698 L 55.6827 47.6928 C 55.6827 50.1744 55.6827 54.1959 55.6827 56.6774 L 55.6835 68.6004 C 55.6835 71.082 57.4391 74.0984 59.6045 75.3392 L 70.0108 81.3015 C 72.177 82.5422 75.6881 84.5537 77.8551 85.7945 L 88.2606 91.7552 C 90.4261 92.996 93.9386 92.996 96.1041 91.7552 L 106.5112 85.7945 C 108.6766 84.5537 112.1877 82.5422 114.3547 81.3015 L 124.7603 75.3392 C 126.9257 74.0984 128.6813 71.082 128.6813 68.6004 L 128.6827 56.6774 C 128.6827 54.1959 128.6827 50.1744 128.6827 47.6928 L 128.6813 35.7698 C 128.6813 33.2883 126.9257 30.2718 124.7603 29.031 ZM 119.4892 67.8268 L 92.1831 83.4692 L 64.8763 67.8268 L 64.8756 56.6774 L 64.8763 36.5435 L 92.1831 20.9011 L 119.4892 36.5435 L 119.4892 67.8268 Z" fill="#cfe5f0"/>
					<path d="M 128.6827 56.6774 C 128.6827 54.1959 128.6827 50.1744 128.6827 47.6928 L 128.6813 35.7698 C 128.6813 33.2883 126.9257 30.2718 124.7603 29.031 L 114.3547 23.0703 C 112.1877 21.8295 108.6766 19.8165 106.5112 18.5757 L 96.1041 12.6165 C 93.9386 11.3756 90.4261 11.3756 88.2606 12.6165 L 77.8551 18.5757 C 75.6881 19.8165 72.177 21.8295 70.0108 23.0703 L 59.6045 29.031 C 57.4391 30.2718 55.6835 33.2883 55.6835 35.7698 L 55.6827 47.6928 C 55.6827 50.1744 55.6827 54.1959 55.6827 56.6774 L 55.6835 68.6004 C 55.6835 71.082 57.4391 74.0984 59.6045 75.3392 L 70.0108 81.3015 C 72.177 82.5422 75.6881 84.5537 77.8551 85.7945 L 88.2606 91.7552 C 90.4261 92.996 93.9386 92.996 96.1041 91.7552 L 106.5112 85.7945 C 108.6766 84.5537 112.1877 82.5422 114.3547 81.3015 L 124.7603 75.3392 C 126.9257 74.0984 128.6813 71.082 128.6813 68.6004 L 128.6827 56.6774 ZM 121.3398 68.4413 C 121.2759 68.6431 121.0947 68.9556 120.9491 69.1118 L 92.5752 85.3657 C 92.4252 85.3981 91.9425 85.3996 91.7895 85.3657 L 63.4149 69.1118 C 63.2701 68.9556 63.0889 68.6431 63.025 68.4413 L 63.0243 56.6774 L 63.025 35.929 C 63.0889 35.7271 63.2701 35.4147 63.4149 35.2585 L 91.7895 19.006 C 91.9425 18.9751 92.4252 18.9751 92.5752 19.006 L 120.9491 35.2585 C 121.0947 35.4147 121.2759 35.7271 121.3398 35.929 L 121.3412 47.6928 L 121.3398 68.4413 Z" fill="#adcfea"/>
					<path d="M 124.7603 29.031 L 114.3547 23.0703 C 112.1877 21.8295 108.6766 19.8165 106.5112 18.5757 L 96.1041 12.6165 C 93.9386 11.3756 90.4261 11.3756 88.2606 12.6165 L 77.8551 18.5757 C 75.6881 19.8165 72.177 21.8295 70.0108 23.0703 L 59.6045 29.031 C 57.4391 30.2718 55.6835 33.2883 55.6835 35.7698 L 55.6827 47.6928 C 55.6827 50.1744 55.6827 54.1959 55.6827 56.6774 L 55.6835 68.6004 C 55.6835 71.082 57.4391 74.0984 59.6045 75.3392 L 70.0108 81.3015 C 72.177 82.5422 75.6881 84.5537 77.8551 85.7945 L 88.2606 91.7552 C 90.4261 92.996 93.9386 92.996 96.1041 91.7552 L 106.5112 85.7945 C 108.6766 84.5537 112.1877 82.5422 114.3547 81.3015 L 124.7603 75.3392 C 126.9257 74.0984 128.6813 71.082 128.6813 68.6004 L 128.6827 56.6774 C 128.6827 54.1959 128.6827 50.1744 128.6827 47.6928 L 128.6813 35.7698 C 128.6813 33.2883 126.9257 30.2718 124.7603 29.031 ZM 123.1918 68.5989 C 123.1814 69.1486 122.4879 70.3393 122.0155 70.6222 L 93.3594 87.0382 C 93.2644 87.0898 92.8441 87.2386 92.1831 87.2386 C 91.5207 87.2386 91.1004 87.0898 91.0053 87.0382 L 62.3515 70.6237 C 61.8769 70.3393 61.1833 69.1486 61.1729 68.6004 L 61.1722 56.6774 L 61.1729 35.7713 C 61.1833 35.2216 61.8769 34.031 62.3492 33.748 L 91.0053 17.3335 C 91.1004 17.2819 91.5207 17.1331 92.1831 17.1331 C 92.8441 17.1331 93.2644 17.2819 93.3594 17.3335 L 122.014 33.7466 C 122.4879 34.031 123.1814 35.2216 123.1918 35.7698 L 123.1933 47.6928 L 123.1918 68.5989 Z" fill="#8ebcde"/>
					<path d="M 124.7603 29.031 L 114.3547 23.0703 C 112.1877 21.8295 108.6766 19.8165 106.5112 18.5757 L 96.1041 12.6165 C 93.9386 11.3756 90.4261 11.3756 88.2606 12.6165 L 77.8551 18.5757 C 75.6881 19.8165 72.177 21.8295 70.0108 23.0703 L 59.6045 29.031 C 57.4391 30.2718 55.6835 33.2883 55.6835 35.7698 L 55.6827 47.6928 C 55.6827 50.1744 55.6827 54.1959 55.6827 56.6774 L 55.6835 68.6004 C 55.6835 71.082 57.4391 74.0984 59.6045 75.3392 L 70.0108 81.3015 C 72.177 82.5422 75.6881 84.5537 77.8551 85.7945 L 88.2606 91.7552 C 90.4261 92.996 93.9386 92.996 96.1041 91.7552 L 106.5112 85.7945 C 108.6766 84.5537 112.1877 82.5422 114.3547 81.3015 L 124.7603 75.3392 C 126.9257 74.0984 128.6813 71.082 128.6813 68.6004 L 128.6827 56.6774 C 128.6827 54.1959 128.6827 50.1744 128.6827 47.6928 L 128.6813 35.7698 C 128.6813 33.2883 126.9257 30.2718 124.7603 29.031 ZM 125.0216 68.6004 C 125.0216 69.7867 123.9656 71.6007 122.9304 72.1946 L 94.2743 88.6106 C 93.9001 88.8257 93.153 89.0541 92.1831 89.0541 C 91.2118 89.0541 90.4647 88.8257 90.0904 88.6106 L 61.4351 72.1946 C 60.3991 71.6007 59.3431 69.7867 59.3431 68.6004 L 59.3423 56.6774 L 59.3431 35.7698 C 59.3431 34.5836 60.3991 32.7696 61.4343 32.1757 L 90.0904 15.7611 C 90.4647 15.546 91.2118 15.3176 92.1831 15.3176 C 93.153 15.3176 93.9001 15.546 94.2743 15.7611 L 122.9304 32.1757 C 123.9656 32.7696 125.0216 34.5836 125.0216 35.7698 L 125.0231 47.6928 L 125.0216 68.6004 Z" fill="#5b7e9e"/>
					<path d="M 84.9188 37.3363 L 95.1773 47.572 L 95.1773 65.7873 L 103.7561 65.7888 L 103.7561 37.3363 L 84.9188 37.3363 Z" fill="#1a5070"/>
					<path d="M 76.5451 35.2644 C 76.5451 33.5903 77.913 32.2332 79.6002 32.2332 C 81.2874 32.2332 82.6553 33.5903 82.6553 35.2644 C 82.6553 36.9384 81.2874 38.2956 79.6002 38.2956 C 77.913 38.2956 76.5451 36.9384 76.5451 35.2644 Z" fill="#1a5070"/>
					<path d="M 90.2568 58.5401 C 90.2107 55.1847 87.1378 54.0721 84.5668 53.6227 C 84.6589 53.0376 84.8022 51.4859 84.8022 50.8743 C 84.8022 47.5808 84.2119 43.6935 82.1563 41.539 C 81.8949 41.2635 81.8734 41.2237 81.7077 41.0866 L 81.7077 67.0958 L 90.2568 75.6163 L 90.2568 58.5401 Z" fill="url(#gradient1)"/>
					<path d="M 90.2568 58.5401 C 90.2107 55.1847 87.0887 54.1178 84.5178 53.6669 C 84.6084 53.0818 84.7465 51.4947 84.7465 50.8832 C 84.7465 47.5897 84.2133 43.745 82.1578 41.5906 C 81.8964 41.3135 81.8734 41.2237 81.7077 41.0866 C 83.5562 42.6516 85.602 44.8267 87.1467 47.4836 C 88.9839 50.64 90.0013 53.5829 90.2568 56.2678 C 90.2568 57.3317 90.2568 58.5401 90.2568 58.5401 Z" fill="#c0d6ee"/>
					<path d="M 124.7603 29.031 L 114.3547 23.0703 C 112.1877 21.8295 108.6766 19.8165 106.5112 18.5757 L 96.1041 12.6165 C 93.9386 11.3756 90.4261 11.3756 88.2606 12.6165 L 77.8551 18.5757 C 75.6881 19.8165 72.177 21.8295 70.0108 23.0703 L 59.6045 29.031 C 57.4391 30.2718 55.6835 33.2883 55.6835 35.7698 L 55.6827 47.6928 C 55.6827 50.1744 55.6827 54.1959 55.6827 56.6774 L 55.6835 68.6004 C 55.6835 71.082 57.4391 74.0984 59.6045 75.3392 L 70.0108 81.3015 C 72.177 82.5422 75.6881 84.5537 77.8551 85.7945 L 88.2606 91.7552 C 90.4261 92.996 93.9386 92.996 96.1041 91.7552 L 106.5112 85.7945 C 108.6766 84.5537 112.1877 82.5422 114.3547 81.3015 L 124.7603 75.3392 C 126.9257 74.0984 128.6813 71.082 128.6813 68.6004 L 128.6827 56.6774 C 128.6827 54.1959 128.6827 50.1744 128.6827 47.6928 L 128.6813 35.7698 C 128.6813 33.2883 126.9257 30.2718 124.7603 29.031 ZM 126.8514 68.6004 C 126.8514 70.4351 125.4464 72.8488 123.8453 73.7669 L 95.1892 90.1829 C 93.6639 91.0553 90.6964 91.0538 89.1755 90.1829 L 60.5194 73.7669 C 58.9183 72.8488 57.5133 70.4351 57.5133 68.6004 L 57.5126 56.6774 L 57.5133 35.7698 C 57.5133 33.9352 58.9183 31.5214 60.5194 30.6034 L 89.1755 14.1888 C 89.9374 13.7526 91.0335 13.5021 92.1831 13.5021 C 93.3312 13.5021 94.4273 13.7526 95.1892 14.1888 L 123.8453 30.6034 C 125.4464 31.5214 126.8514 33.9352 126.8514 35.7698 L 126.8529 47.6928 L 126.8514 68.6004 Z" fill="#1a5070"/>
				</g>
			</g>
		</g>
		<g visibility="hidden">
			<path opacity="0.9294" d="M -215 2250 L 535 2250 L 535 0 L -215 0 L -215 2250 Z" fill="#526364"/>
			<text id="menu" x="113" y="250" width="165" fill="#7fd1f2" style="font-size: 17px; font-family: VAGRounded Lt; color: #7fd1f2; text-align: right; "><tspan><![CDATA[INCIO]]></tspan><tspan style="color: #cccccc; "><![CDATA[ESCOLACENTRO QUALIFICAFAQCONTACTOS]]></tspan></text>
			<g>
				<text id="menu2" x="-6" y="40" width="284" fill="#cccccc" style="font-size: 17px; font-family: VAGRounded Lt; color: #cccccc; text-align: right; "><tspan><![CDATA[FECHAR MENU]]></tspan></text>
				<g>
					<path id="Line" d="M 301.875 22.875 L 292.3334 32.3334 " stroke="#cccccc" stroke-width="2" fill="none"/>
					<path id="Line2" d="M 301.6108 31.9015 L 292.0985 22.3892 " stroke="#cccccc" stroke-width="2" fill="none"/>
				</g>
				<path id="Ellipse" d="M 283 27 C 283 19.2679 289.2679 13 297 13 C 304.7321 13 311 19.2679 311 27 C 311 34.7321 304.7321 41 297 41 C 289.2679 41 283 34.7321 283 27 Z" stroke="#cccccc" stroke-width="1" fill="none"/>
			</g>
		</g>
	</g>
	<g id="Layer%202">
	</g>
</svg>